<?xml version="1.0" encoding="utf-8"?>
<!-- Generator: Adobe Illustrator 16.0.0, SVG Export Plug-In . SVG Version: 6.00 Build 0)  -->
<!DOCTYPE svg PUBLIC "-//W3C//DTD SVG 1.1//EN" "http://www.w3.org/Graphics/SVG/1.1/DTD/svg11.dtd">
<svg version="1.1" id="图层_1" xmlns="http://www.w3.org/2000/svg" xmlns:xlink="http://www.w3.org/1999/xlink" x="0px" y="0px"
	 width="262px" height="72px" viewBox="0 0 262 72" enable-background="new 0 0 262 72" xml:space="preserve">
<g>
	<title>background</title>
	<rect id="canvas_background" x="-1" y="-1" fill="none" width="264" height="74"/>
</g>
<polyline fill="#FFFFFF" stroke="#000000" stroke-miterlimit="10" points="169.334,57.063 178,57.063 178,65.184 169.167,65.184 
	164.334,68.223 165.584,65.184 164,65.184 164,60.815 "/>
<line fill="none" stroke="#000000" stroke-miterlimit="10" x1="164" y1="58.898" x2="168.917" y2="58.898"/>
<line fill="none" stroke="#000000" stroke-miterlimit="10" x1="166.459" y1="56.398" x2="166.459" y2="61.065"/>
<polyline fill="#FFFFFF" stroke="#000000" stroke-miterlimit="10" points="187.334,56.78 196,56.78 196,64.9 187.167,64.9 
	182.334,67.939 183.584,64.9 182,64.9 182,60.532 "/>
<polyline fill="#FFFFFF" stroke="#000000" stroke-miterlimit="10" points="205.334,56.585 214,56.585 214,64.705 205.167,64.705 
	200.334,67.744 201.584,64.705 200,64.705 200,60.337 "/>
<g>
	<title>background</title>
	<rect id="canvas_background_1_" x="18" y="-1" fill="none" width="264" height="74"/>
</g>
<polyline fill="#FFFFFF" stroke="#000000" stroke-miterlimit="10" points="224.334,56.585 233,56.585 233,64.705 224.167,64.705 
	219.334,67.744 220.584,64.705 219,64.705 219,60.337 "/>
<path fill="none" stroke="#000000" stroke-miterlimit="10" d="M184,58.898"/>
<path fill="none" stroke="#000000" stroke-miterlimit="10" d="M188.75,55.229"/>
<path fill="none" stroke="#000000" stroke-miterlimit="10" d="M188.375,58.898"/>
<line fill="none" stroke="#000000" stroke-miterlimit="10" x1="186.813" y1="56.78" x2="182.75" y2="60.03"/>
<line fill="none" stroke="#000000" stroke-miterlimit="10" x1="182.75" y1="56.78" x2="186.813" y2="60.03"/>
<polyline fill="#FFFFFF" stroke="#000000" stroke-miterlimit="10" points="242.459,56.585 251.125,56.585 251.125,64.705 
	242.292,64.705 237.459,67.744 238.709,64.705 237.125,64.705 237.125,60.337 "/>
<g>
	<title>Layer 1</title>
	<g id="svg_1">
		<path id="svg_2" d="M5.435,9.435L8,12H1V5l2.958,2.958C5.406,6.736,7.277,6,9.32,6c3.458,0,6.424,2.11,7.68,5l-2,1
			c-0.937-2.39-3.129-3.92-5.68-4C7.851,8.053,6.5,8.579,5.435,9.435z"/>
	</g>
	<g id="svg_3">
		<path id="svg_4" d="M30.565,9.435L28,12h7V5l-2.958,2.958C30.594,6.736,28.723,6,26.68,6c-3.458,0-6.424,2.11-7.68,5l2,1
			c0.937-2.39,3.129-3.92,5.68-4C28.149,8.053,29.5,8.579,30.565,9.435z"/>
	</g>
	<g id="svg_5">
		<path id="svg_6" d="M50,16H40v-3h-3V8.006C37,6.898,37.895,6,38.994,6h12.012C52.107,6,53,6.887,53,8.006V13h-3V16z M42,11h6v3h-6
			V11z M40,2h10v3H40V2z M49,8h2v2h-2V8z"/>
	</g>
	<g id="svg_7">
		<path id="svg_8" d="M66,2h-8c-0.55,0-1,0.45-1,1v3c0,0.55,0.45,1,1,1h8c0.55,0,1-0.45,1-1V5h1v3h-7v8h2v-6h7V4h-3V3
			C67,2.45,66.55,2,66,2z"/>
	</g>
	<g id="svg_9">
		<path id="svg_10" d="M74.27,4.55l5.16,5.15L77,15h2.5l1.64-3.58L85.73,16L87,14.73L75.55,3.27L74.27,4.55L74.27,4.55z M77.82,3
			l2,2h1.76l-0.55,1.21l1.71,1.71L84.08,5H88V3H77.82L77.82,3L77.82,3z"/>
	</g>
	<g id="svg_11">
		<path id="svg_12" d="M103,6.5c0-1.93-1.57-3.5-3.5-3.5H94v12h6.25c1.79,0,3.25-1.46,3.25-3.25c0-1.3-0.77-2.41-1.87-2.93
			C102.46,8.24,103,7.38,103,6.5z M99,5c0.83,0,1.5,0.67,1.5,1.5S99.83,8,99,8h-2V5H99z M97,13v-3h2.5c0.83,0,1.5,0.67,1.5,1.5
			s-0.67,1.5-1.5,1.5H97z"/>
	</g>
	<g id="svg_13">
		<polygon id="svg_14" points="115,3 115,5 117.58,5 113.92,13 111,13 111,15 119,15 119,13 116.42,13 120.08,5 123,5 123,3 		"/>
	</g>
	<g id="svg_15">
		<path id="svg_16" d="M135,15c2.76,0,5-2.24,5-5V3h-2v7c0,1.75-1.501,3-3,3s-3-1.242-3-3V3h-2v7C130,12.76,132.24,15,135,15z
			 M129,16v2h12v-2H129z"/>
	</g>
	<g id="svg_17">
		<path id="svg_18" fill="#010101" d="M148.888,6.06c0-0.458,0.097-0.874,0.296-1.252s0.477-0.701,0.836-0.968
			c0.36-0.266,0.784-0.472,1.279-0.619C151.794,3.075,152.334,3,152.926,3c0.607,0,1.159,0.083,1.654,0.251
			c0.495,0.169,0.918,0.401,1.271,0.705c0.352,0.3,0.622,0.656,0.813,1.073c0.191,0.413,0.285,0.866,0.285,1.357h-2.258
			c0-0.229-0.038-0.442-0.108-0.637c-0.071-0.199-0.184-0.368-0.334-0.506c-0.15-0.139-0.338-0.251-0.563-0.327
			c-0.225-0.079-0.491-0.116-0.799-0.116c-0.297,0-0.551,0.034-0.772,0.098c-0.218,0.064-0.397,0.154-0.54,0.27
			s-0.251,0.251-0.322,0.405c-0.071,0.154-0.109,0.323-0.109,0.495c0,0.36,0.184,0.664,0.552,0.908
			c0.021,0.014,0.043,0.028,0.065,0.042C152.023,7.188,152.5,7.5,153,8h-3c0,0-0.786-0.624-0.824-0.691
			C148.984,6.953,148.888,6.536,148.888,6.06L148.888,6.06z M160,9h-14v2h7.219c0.135,0.053,0.3,0.105,0.412,0.154
			c0.277,0.124,0.496,0.255,0.652,0.382c0.158,0.131,0.264,0.274,0.319,0.424c0.056,0.154,0.083,0.326,0.083,0.514
			c0,0.176-0.034,0.341-0.102,0.491c-0.068,0.154-0.173,0.285-0.312,0.394s-0.319,0.195-0.532,0.259
			c-0.218,0.063-0.469,0.094-0.762,0.094c-0.326,0-0.622-0.034-0.889-0.098c-0.266-0.064-0.491-0.169-0.679-0.311
			c-0.188-0.143-0.333-0.33-0.438-0.559c-0.105-0.229-0.191-0.574-0.191-0.744h-2.231c0,0.252,0.06,0.688,0.177,1.025
			c0.115,0.337,0.281,0.641,0.487,0.908c0.206,0.266,0.454,0.495,0.735,0.69s0.584,0.36,0.914,0.487
			c0.33,0.131,0.672,0.229,1.035,0.289c0.36,0.063,0.725,0.094,1.084,0.094c0.6,0,1.147-0.068,1.635-0.207
			c0.488-0.139,0.908-0.337,1.253-0.592c0.345-0.259,0.611-0.574,0.802-0.953c0.191-0.379,0.281-0.806,0.281-1.286
			c0-0.45-0.078-0.855-0.232-1.211c-0.037-0.086-0.078-0.168-0.127-0.251L160,11V9L160,9z"/>
	</g>
	<g id="svg_19">
		<path id="svg_20" d="M172,1h-2l-4.5,12h2l1.12-3h4.75l1.12,3h2L172,1L172,1L172,1z M169.38,8L171,3.67L172.62,8H169.38L169.38,8
			L169.38,8z"/>
	</g>
	<g id="svg_21">
		<g id="svg_22">
			<path id="svg_23" d="M194.5,8.87c0,0-1.5,1.62-1.5,2.62c0,0.83,0.67,1.5,1.5,1.5s1.5-0.67,1.5-1.5
				C196,10.5,194.5,8.87,194.5,8.87L194.5,8.87z M192.71,6.79L185.91,0l-1.061,1.06l1.59,1.59l-4.149,4.14
				c-0.39,0.39-0.39,1.02,0,1.41l4.5,4.5c0.2,0.2,0.45,0.3,0.71,0.3s0.51-0.1,0.71-0.29l4.5-4.5C193.1,7.82,193.1,7.18,192.71,6.79
				L192.71,6.79L192.71,6.79z M184.21,7l3.29-3.29L190.79,7H184.21L184.21,7L184.21,7z"/>
		</g>
	</g>
	<g id="svg_24">
		<path id="svg_25" d="M201,6h-2V2h7v2h-5V6z M208,4V2h7v4h-2V4H208z M208,14h5v-2h2v4h-7V14z M199,12h2v2h5v2h-7V12z M199,8h4V6
			l3,3l-3,3v-2h-4V8z M208,9l3-3v2h4v2h-4v2L208,9z"/>
	</g>
	<g id="svg_26">
		<path id="svg_27" d="M218,16h10v-2h-10V16z M228,6h-10v2h10V6z M218,2v2h14V2H218z M218,12h14v-2h-14V12z"/>
	</g>
	<g id="svg_28">
		<path id="svg_29" d="M238,14v2h10v-2H238z M238,6v2h10V6H238z M236,12h14v-2h-14V12z M236,2v2h14V2H236z"/>
	</g>
	<g id="svg_30">
		<path id="svg_31" d="M6,34h10v-2H6V34z M2,30h14v-2H2V30z M2,20v2h14v-2H2z M6,26h10v-2H6V26z"/>
	</g>
	<g id="svg_32">
		<path id="svg_33" d="M21,20v2h12v-2H21L21,20z M23.5,27H26v7h2v-7h2.5L27,23.5L23.5,27L23.5,27z"/>
	</g>
	<g id="svg_34">
		<path id="svg_35" d="M48.5,21H46v-3h-2v3h-2.5l3.5,3.5L48.5,21L48.5,21z M39,26v2h12v-2H39L39,26z M41.5,33H44v3h2v-3h2.5L45,29.5
			L41.5,33L41.5,33z"/>
	</g>
	<g id="svg_36">
		<path id="svg_37" d="M66.5,27H64v-7h-2v7h-2.5l3.5,3.5L66.5,27L66.5,27z M57,32v2h12v-2H57L57,32z"/>
	</g>
	<g id="svg_38">
		<path id="svg_39" d="M88,21H74v2h14V21z M74,33h4v-2h-4V33z M85.5,26H74v2h11.75c0.83,0,1.5,0.67,1.5,1.5s-0.67,1.5-1.5,1.5H83v-2
			l-3,3l3,3v-2h2.5c1.93,0,3.5-1.57,3.5-3.5S87.43,26,85.5,26z"/>
	</g>
	<g id="svg_40">
		<path id="svg_41" d="M92,21v1l6,6v5l2-1v-4l6-6v-1H92z M96,24h6l-3,3L96,24z"/>
	</g>
	<g id="svg_42">
		<polygon id="svg_43" points="122,20 112,20 112,21.8 117.5,27 112,32.2 112,34 122,34 122,32 115.1,32 120,27 115.1,22 122,22 		
			"/>
	</g>
	<g id="svg_44">
		<polygon id="svg_45" points="131,25 135,29 139,25 		"/>
	</g>
	<g id="svg_46">
		<polygon id="svg_47" points="151,31 155,27 151,23 		"/>
	</g>
	<g id="svg_48">
		<path id="svg_49" d="M163.9,27c0-1.16,0.939-2.1,2.1-2.1h4V23h-4c-2.21,0-4,1.79-4,4s1.79,4,4,4h4v-1.9h-4
			C164.84,29.1,163.9,28.16,163.9,27L163.9,27z M176,23h-4v1.9h4c1.16,0,2.1,0.94,2.1,2.1s-0.939,2.1-2.1,2.1h-4V31h4
			c2.21,0,4-1.79,4-4S178.21,23,176,23L176,23z M168,28h6v-2h-6V28L168,28z"/>
	</g>
	<g id="svg_50">
		<path id="svg_51" d="M196,19c0.55,0,1,0.45,1,1v14c0,0.55-0.45,1-1,1h-14c-0.55,0-1-0.45-1-1V20c0-0.55,0.45-1,1-1H196z M183,21
			v12h12V21H183z M187,31h-2v-5h2V31L187,31z M190,31h-2v-8h2V31L190,31z M193,31h-2v-4h2V31L193,31z"/>
	</g>
	<g id="svg_52">
		<g id="svg_53">
			<path id="svg_54" fill="none" stroke="#000000" d="M199.5,21.5h15v12h-15V21.5z"/>
			<path id="svg_55" d="M204,26h1v7h-1V26z"/>
			<path id="svg_56" fill="#D8D8D8" d="M200,22h14v3h-14V22z"/>
			<path id="svg_57" d="M200,25h14v1h-14V25z M200,29h14v1h-14V29z"/>
		</g>
	</g>
	<g id="svg_58">
		<path id="svg_59" d="M220,25.5c-0.83,0-1.5,0.67-1.5,1.5s0.67,1.5,1.5,1.5s1.5-0.67,1.5-1.5S220.83,25.5,220,25.5L220,25.5z
			 M230,25.5c-0.83,0-1.5,0.67-1.5,1.5s0.67,1.5,1.5,1.5s1.5-0.67,1.5-1.5S230.83,25.5,230,25.5L230,25.5z M225,25.5
			c-0.83,0-1.5,0.67-1.5,1.5s0.67,1.5,1.5,1.5s1.5-0.67,1.5-1.5S225.83,25.5,225,25.5L225,25.5z"/>
	</g>
	<g id="svg_60">
		<path id="svg_61" d="M244,26v-4h-2v4h-4v2h4v4h2v-4h4v-2H244z"/>
	</g>
	<g id="svg_62">
		<path id="svg_63" d="M2,38v14h14V38H2L2,38z M8,50H4v-4h4V50L8,50z M8,44H4v-4h4V44L8,44z M14,50h-4v-4h4V50L14,50z M14,44h-4v-4
			h4V44L14,44z"/>
	</g>
	<g id="svg_64">
		<g id="svg_65">
			<path id="svg_66" opacity="0.54" enable-background="new    " d="M20,52h2v-2h-2V52L20,52z M22,41h-2v2h2V41L22,41z M23,52h2v-2
				h-2V52L23,52z M31,38h-2v2h2V38L31,38z M22,38h-2v2h2V38L22,38z M25,38h-2v2h2V38L25,38z M20,49h2v-2h-2V49L20,49z M29,52h2v-2
				h-2V52L29,52z M32,38v2h2v-2H32L32,38z M32,43h2v-2h-2V43L32,43z M32,52h2v-2h-2V52L32,52z M32,49h2v-2h-2V49L32,49z"/>
			<polygon id="svg_67" points="28,38 26,38 26,44 20,44 20,46 26,46 26,52 28,52 28,46 34,46 34,44 28,44 			"/>
		</g>
	</g>
	<g id="svg_68">
		<g id="svg_69">
			<path id="svg_70" opacity="0.54" enable-background="new    " d="M44,52h2v-2h-2V52L44,52z M41,40h2v-2h-2V40L41,40z M44,49h2v-2
				h-2V49L44,49z M41,52h2v-2h-2V52L41,52z M38,43h2v-2h-2V43L38,43z M38,52h2v-2h-2V52L38,52z M38,40h2v-2h-2V40L38,40z M38,49h2
				v-2h-2V49L38,49z M50,49h2v-2h-2V49L50,49z M50,52h2v-2h-2V52L50,52z M50,43h2v-2h-2V43L50,43z M50,38v2h2v-2H50L50,38z M44,40h2
				v-2h-2V40L44,40z M47,40h2v-2h-2V40L47,40z M44,43h2v-2h-2V43L44,43z M47,52h2v-2h-2V52L47,52z"/>
			<polygon id="svg_71" points="38,46 52,46 52,44 38,44 			"/>
		</g>
	</g>
	<g id="svg_72">
		<g id="svg_73">
			<path id="svg_74" opacity="0.54" enable-background="new    " d="M59,52h2v-2h-2V52L59,52z M56,43h2v-2h-2V43L56,43z M56,40h2v-2
				h-2V40L56,40z M59,46h2v-2h-2V46L59,46z M59,40h2v-2h-2V40L59,40z M56,52h2v-2h-2V52L56,52z M56,46h2v-2h-2V46L56,46z M56,49h2
				v-2h-2V49L56,49z M68,38v2h2v-2H68L68,38z M68,46h2v-2h-2V46L68,46z M68,52h2v-2h-2V52L68,52z M68,43h2v-2h-2V43L68,43z M68,49h2
				v-2h-2V49L68,49z M65,52h2v-2h-2V52L65,52z M65,46h2v-2h-2V46L65,46z M65,40h2v-2h-2V40L65,40z"/>
			<polygon id="svg_75" points="62,52 64,52 64,38 62,38 			"/>
		</g>
	</g>
	<g id="svg_76">
		<g id="svg_77">
			<path id="svg_78" opacity="0.54" enable-background="new    " d="M82,41h-2v2h2V41L82,41z M85,44h-2v2h2V44L85,44z M82,44h-2v2h2
				V44L82,44z M82,47h-2v2h2V47L82,47z M79,44h-2v2h2V44L79,44z"/>
			<path id="svg_79" d="M74,38h14v14H74V38z M86,50V40H76v10H86z"/>
		</g>
	</g>
	<g id="svg_80">
		<g id="svg_81">
			<path id="svg_82" opacity="0.54" enable-background="new    " d="M98,46h2v-2h-2V46L98,46z M98,43h2v-2h-2V43L98,43z M98,49h2v-2
				h-2V49L98,49z M98,52h2v-2h-2V52L98,52z M95,52h2v-2h-2V52L95,52z M95,40h2v-2h-2V40L95,40z M95,46h2v-2h-2V46L95,46z M104,52h2
				v-2h-2V52L104,52z M104,46h2v-2h-2V46L104,46z M104,49h2v-2h-2V49L104,49z M104,43h2v-2h-2V43L104,43z M98,40h2v-2h-2V40L98,40z
				 M104,38v2h2v-2H104L104,38z M101,52h2v-2h-2V52L101,52z M101,46h2v-2h-2V46L101,46z M101,40h2v-2h-2V40L101,40z"/>
			<polygon id="svg_83" points="92,52 94,52 94,38 92,38 			"/>
		</g>
	</g>
	<g id="svg_84">
		<g id="svg_85">
			<path id="svg_86" opacity="0.54" enable-background="new    " d="M113,46h2v-2h-2V46L113,46z M110,52h2v-2h-2V52L110,52z M116,52
				h2v-2h-2V52L116,52z M116,49h2v-2h-2V49L116,49z M113,52h2v-2h-2V52L113,52z M110,49h2v-2h-2V49L110,49z M116,46h2v-2h-2V46
				L116,46z M110,43h2v-2h-2V43L110,43z M110,46h2v-2h-2V46L110,46z M122,46h2v-2h-2V46L122,46z M122,49h2v-2h-2V49L122,49z M122,43
				h2v-2h-2V43L122,43z M116,43h2v-2h-2V43L116,43z M119,52h2v-2h-2V52L119,52z M119,46h2v-2h-2V46L119,46z M122,52h2v-2h-2V52
				L122,52z"/>
			<polygon id="svg_87" points="110,38 110,40 124,40 124,38 			"/>
		</g>
	</g>
	<g id="svg_88">
		<g id="svg_89">
			<path id="svg_90" opacity="0.54" enable-background="new    " d="M128,40h2v-2h-2V40L128,40z M131,40h2v-2h-2V40L131,40z M131,46
				h2v-2h-2V46L131,46z M131,52h2v-2h-2V52L131,52z M128,43h2v-2h-2V43L128,43z M128,46h2v-2h-2V46L128,46z M128,52h2v-2h-2V52
				L128,52z M128,49h2v-2h-2V49L128,49z M137,46h2v-2h-2V46L137,46z M134,52h2v-2h-2V52L134,52z M137,52h2v-2h-2V52L137,52z M134,40
				h2v-2h-2V40L134,40z M137,40h2v-2h-2V40L137,40z M134,49h2v-2h-2V49L134,49z M134,43h2v-2h-2V43L134,43z M134,46h2v-2h-2V46
				L134,46z"/>
			<polygon id="svg_91" points="140,38 140,52 142,52 142,38 			"/>
		</g>
	</g>
	<g id="svg_92">
		<g id="svg_93">
			<path id="svg_94" opacity="0.54" enable-background="new    " d="M150.83,38h-2v2h2V38L150.83,38z M153.83,44h-2v2h2V44
				L153.83,44z M153.83,47h-2v2h2V47L153.83,47z M156.83,44h-2v2h2V44L156.83,44z M150.83,44h-2v2h2V44L150.83,44z M156.83,38h-2v2
				h2V38L156.83,38z M153.83,41h-2v2h2V41L153.83,41z M153.83,38h-2v2h2V38L153.83,38z M147.83,47h-2v2h2V47L147.83,47z M157.83,49
				h2v-2h-2V49L157.83,49z M157.83,43h2v-2h-2V43L157.83,43z M157.83,46h2v-2h-2V46L157.83,46z M157.83,38v2h2v-2H157.83L157.83,38z
				 M147.83,38h-2v2h2V38L147.83,38z M147.83,41h-2v2h2V41L147.83,41z M147.83,44h-2v2h2V44L147.83,44z"/>
			<polygon id="svg_95" points="145.83,52 159.83,52 159.83,50 145.83,50 			"/>
		</g>
	</g>
	<g id="svg_96">
		<path id="svg_97" opacity="0.54" enable-background="new    " d="M170,52h2v-2h-2V52L170,52z M167,46h2v-2h-2V46L167,46z M167,40
			h2v-2h-2V40L167,40z M170,49h2v-2h-2V49L170,49z M167,52h2v-2h-2V52L167,52z M164,43h2v-2h-2V43L164,43z M164,52h2v-2h-2V52
			L164,52z M164,40h2v-2h-2V40L164,40z M164,46h2v-2h-2V46L164,46z M170,46h2v-2h-2V46L170,46z M164,49h2v-2h-2V49L164,49z M176,49
			h2v-2h-2V49L176,49z M176,52h2v-2h-2V52L176,52z M176,46h2v-2h-2V46L176,46z M176,43h2v-2h-2V43L176,43z M176,38v2h2v-2H176
			L176,38z M170,40h2v-2h-2V40L170,40z M173,40h2v-2h-2V40L173,40z M170,43h2v-2h-2V43L170,43z M173,52h2v-2h-2V52L173,52z M173,46
			h2v-2h-2V46L173,46z"/>
	</g>
	<g id="svg_98">
		<path id="svg_99" d="M190.5,39.62l-6.5,6.5V49h2.88l6.5-6.5L190.5,39.62z M195.85,40.02c0.2-0.199,0.2-0.51,0-0.709l-2.17-2.17
			c-0.199-0.201-0.51-0.201-0.709,0L191.62,38.5l2.88,2.88L195.85,40.02L195.85,40.02z"/>
	</g>
	<g id="svg_100">
		<path id="svg_101" d="M200,40h14v2h-14V40z M200,44h6v2h-6V44z M200,48h2v2h-2V48z M208,44h6v2h-6V44z M204,48h2v2h-2V48z M208,48
			h2v2h-2V48z M212,48h2v2h-2V48z"/>
	</g>
	<g id="svg_102">
		<polygon id="svg_103" points="227,41 223,45 227,49 		"/>
	</g>
	<g id="svg_104">
		<polygon id="svg_105" points="246.529,42.53 245.471,41.47 243,43.939 240.529,41.47 239.471,42.53 241.939,45 239.471,47.47 
			240.529,48.53 243,46.061 245.471,48.53 246.529,47.47 244.061,45 		"/>
	</g>
	<g id="svg_106">
		<polygon id="svg_107" points="12.44,60.439 9,63.88 5.56,60.439 4.5,61.5 9,66 13.5,61.5 		"/>
	</g>
	<g id="svg_108">
		<polygon id="svg_109" points="27,60 22.5,64.5 23.56,65.561 27,62.12 30.44,65.561 31.5,64.5 		"/>
	</g>
	<g id="svg_110">
		<polygon id="svg_111" points="47.56,66.439 44.12,63 47.56,59.561 46.5,58.5 42,63 46.5,67.5 		"/>
	</g>
	<g id="svg_112">
		<polygon id="svg_113" points="66,63 61.5,58.5 60.44,59.561 63.88,63 60.44,66.439 61.5,67.5 		"/>
	</g>
	<g id="svg_114">
		<polygon id="svg_115" points="75,62 83.875,62 79.94,58.061 81,57 87,63 81,69 79.94,67.939 83.875,64 75,64 		"/>
	</g>
	<g id="svg_116">
		<polygon id="svg_117" points="105,62 96.125,62 100.06,58.061 99,57 93,63 99,69 100.06,67.939 96.125,64 105,64 		"/>
		<g id="svg_116_1_">
			<polygon id="svg_117_1_" points="205.342,58.299 201.089,58.299 202.975,56.596 202.467,56.137 199.592,58.731 202.467,61.326 
				202.975,60.867 201.089,59.164 205.342,59.164 			"/>
		</g>
	</g>
	<line id="svg_119" fill="none" stroke="#000000" stroke-width="1.5" x1="112" y1="60" x2="112.157" y2="69.421"/>
	<line id="svg_120" fill="none" stroke="#000000" stroke-width="1.5" x1="112.157" y1="68.635" x2="122.745" y2="68.635"/>
	<line id="svg_121" fill="none" stroke="#000000" stroke-width="1.5" x1="123" y1="57.654" x2="123.137" y2="69.419"/>
	<line id="svg_122" fill="none" stroke="#000000" stroke-width="1.5" x1="115.687" y1="57.066" x2="123.726" y2="57.066"/>
	<line id="svg_123" fill="none" stroke="#000000" stroke-width="1.5" x1="111.765" y1="60.791" x2="116.471" y2="56.674"/>
	<line id="svg_124" fill="none" stroke="#000000" stroke-width="1.5" x1="112.549" y1="61.38" x2="116.471" y2="61.38"/>
	<line id="svg_125" fill="none" stroke="#000000" stroke-width="1.5" x1="116.471" y1="57" x2="116.471" y2="62.164"/>
	<line id="svg_126" fill="none" stroke="#000000" stroke-width="1.5" x1="133.334" y1="57.066" x2="129.216" y2="62.36"/>
	<line id="svg_128" fill="none" stroke="#000000" stroke-width="1.5" x1="132.941" y1="57.262" x2="132.745" y2="69.223"/>
	<line id="svg_129" fill="none" stroke="#000000" stroke-width="1.5" x1="137.059" y1="57.262" x2="137.059" y2="69.027"/>
	<line id="svg_130" fill="none" stroke="#000000" stroke-width="1.5" x1="136.863" y1="68.831" x2="140.196" y2="63.537"/>
	<ellipse id="svg_118" fill="#FFFFFF" stroke="#000000" stroke-width="1.5" cx="150.593" cy="60.48" rx="3.136" ry="3.051"/>
	<line id="svg_127" fill="none" stroke="#000000" stroke-width="1.5" x1="153.051" y1="63.023" x2="157.457" y2="68.107"/>
	<g id="svg_114_1_">
		<polygon id="svg_115_1_" points="219,58.307 223.16,58.307 221.315,56.632 221.813,56.181 224.625,58.731 221.813,61.282 
			221.315,60.831 223.16,59.156 219,59.156 		"/>
	</g>
	<g id="svg_98_1_">
		<path id="svg_99_1_" d="M240.305,57.638l-2.336,2.106v0.934h1.035l2.336-2.107L240.305,57.638z M242.228,57.767
			c0.071-0.064,0.071-0.165,0-0.229l-0.78-0.703c-0.071-0.065-0.184-0.065-0.255,0l-0.485,0.44l1.035,0.934L242.228,57.767
			L242.228,57.767z"/>
	</g>
</g>
</svg>
