<?xml version="1.0" encoding="UTF-8" standalone="no"?>
<!-- Generator: Adobe Illustrator 16.0.0, SVG Export Plug-In . SVG Version: 6.00 Build 0)  -->

<svg
   version="1.1"
   id="图层_1"
   x="0px"
   y="0px"
   width="262"
   height="120"
   viewBox="0 0 262 120"
   enable-background="new 0 0 262 72"
   xml:space="preserve"
   sodipodi:docname="method-draw-image-new.svg"
   inkscape:version="1.1.1 (3bf5ae0d25, 2021-09-20)"
   xmlns:inkscape="http://www.inkscape.org/namespaces/inkscape"
   xmlns:sodipodi="http://sodipodi.sourceforge.net/DTD/sodipodi-0.dtd"
   xmlns="http://www.w3.org/2000/svg"
   xmlns:svg="http://www.w3.org/2000/svg"><sodipodi:namedview
   id="namedview241"
   pagecolor="#ffffff"
   bordercolor="#666666"
   borderopacity="1.0"
   inkscape:pageshadow="2"
   inkscape:pageopacity="0.0"
   inkscape:pagecheckerboard="0"
   showgrid="false"
   inkscape:zoom="5.2557252"
   inkscape:cx="106.55047"
   inkscape:cy="45.093682"
   inkscape:window-width="1373"
   inkscape:window-height="760"
   inkscape:window-x="461"
   inkscape:window-y="297"
   inkscape:window-maximized="0"
   inkscape:current-layer="图层_1" /><defs
   id="defs365">
	
	
	
	
	
	
	
	
	
	
	
	
	
	
	
	
	
	
	
	
	
	
	
	
	
	
	
	
	
	
	
	
	
	
	
	
	
	
	
	
	
	
	
	
	
	
	
	
	
	
	
	
	
	
	
	
	
	
	
	
	
	
	
	

		
		
	<style
   id="style1998">
      .cls-1 {
        fill: none;
      }
    </style><style
   id="style2019">
      .cls-1 {
        fill: none;
      }
    </style></defs>
<g
   id="g191">
	<title
   id="title188">background</title>
	<rect
   id="canvas_background"
   x="-1"
   y="-1"
   fill="none"
   width="264"
   height="74" />
</g>





<g
   id="g206">
	<title
   id="title203">background</title>
	<rect
   id="canvas_background_1_"
   x="18"
   y="-1"
   fill="none"
   width="264"
   height="74" />
</g>

<path
   fill="none"
   stroke="#000000"
   stroke-miterlimit="10"
   d="M 184,58.898"
   id="path210" />
<path
   fill="none"
   stroke="#000000"
   stroke-miterlimit="10"
   d="M 188.75,55.229"
   id="path212" />
<path
   fill="none"
   stroke="#000000"
   stroke-miterlimit="10"
   d="M 188.375,58.898"
   id="path214" />



<g
   id="svg_1">
		<path
   id="svg_2"
   d="M 5.435,9.435 8,12 H 1 V 5 L 3.958,7.958 C 5.406,6.736 7.277,6 9.32,6 12.778,6 15.744,8.11 17,11 l -2,1 C 14.063,9.61 11.871,8.08 9.32,8 7.851,8.053 6.5,8.579 5.435,9.435 Z" />
	</g><g
   id="svg_3">
		<path
   id="svg_4"
   d="M 30.565,9.435 28,12 h 7 V 5 L 32.042,7.958 C 30.594,6.736 28.723,6 26.68,6 23.222,6 20.256,8.11 19,11 l 2,1 c 0.937,-2.39 3.129,-3.92 5.68,-4 1.469,0.053 2.82,0.579 3.885,1.435 z" />
	</g><g
   id="svg_5">
		<path
   id="svg_6"
   d="M 50,16 H 40 V 13 H 37 V 8.006 C 37,6.898 37.895,6 38.994,6 H 51.006 C 52.107,6 53,6.887 53,8.006 V 13 h -3 z m -8,-5 h 6 v 3 H 42 Z M 40,2 H 50 V 5 H 40 Z m 9,6 h 2 v 2 h -2 z" />
	</g><g
   id="svg_7">
		<path
   id="svg_8"
   d="m 66,2 h -8 c -0.55,0 -1,0.45 -1,1 v 3 c 0,0.55 0.45,1 1,1 h 8 c 0.55,0 1,-0.45 1,-1 V 5 h 1 v 3 h -7 v 8 h 2 v -6 h 7 V 4 H 67 V 3 C 67,2.45 66.55,2 66,2 Z" />
	</g><g
   id="svg_9">
		<path
   id="svg_10"
   d="M 74.27,4.55 79.43,9.7 77,15 h 2.5 L 81.14,11.42 85.73,16 87,14.73 75.55,3.27 Z M 77.82,3 l 2,2 h 1.76 L 81.03,6.21 82.74,7.92 84.08,5 H 88 V 3 Z" />
	</g><g
   id="svg_11">
		<path
   id="svg_12"
   d="M 103,6.5 C 103,4.57 101.43,3 99.5,3 H 94 v 12 h 6.25 c 1.79,0 3.25,-1.46 3.25,-3.25 0,-1.3 -0.77,-2.41 -1.87,-2.93 C 102.46,8.24 103,7.38 103,6.5 Z M 99,5 c 0.83,0 1.5,0.67 1.5,1.5 C 100.5,7.33 99.83,8 99,8 H 97 V 5 Z m -2,8 v -3 h 2.5 c 0.83,0 1.5,0.67 1.5,1.5 0,0.83 -0.67,1.5 -1.5,1.5 z" />
	</g><g
   id="svg_13">
		<polygon
   id="svg_14"
   points="111,15 119,15 119,13 116.42,13 120.08,5 123,5 123,3 115,3 115,5 117.58,5 113.92,13 111,13 " />
	</g><g
   id="svg_15"
   transform="translate(0,-2)">
		<path
   id="svg_16"
   d="m 135,15 c 2.76,0 5,-2.24 5,-5 V 3 h -2 v 7 c 0,1.75 -1.501,3 -3,3 -1.499,0 -3,-1.242 -3,-3 V 3 h -2 v 7 c 0,2.76 2.24,5 5,5 z m -6,1 v 2 h 12 v -2 z" />
	</g><g
   id="svg_17">
		<path
   id="svg_18"
   fill="#010101"
   d="m 148.888,6.06 c 0,-0.458 0.097,-0.874 0.296,-1.252 0.199,-0.378 0.477,-0.701 0.836,-0.968 0.36,-0.266 0.784,-0.472 1.279,-0.619 C 151.794,3.075 152.334,3 152.926,3 c 0.607,0 1.159,0.083 1.654,0.251 0.495,0.169 0.918,0.401 1.271,0.705 0.352,0.3 0.622,0.656 0.813,1.073 0.191,0.413 0.285,0.866 0.285,1.357 h -2.258 c 0,-0.229 -0.038,-0.442 -0.108,-0.637 -0.071,-0.199 -0.184,-0.368 -0.334,-0.506 -0.15,-0.139 -0.338,-0.251 -0.563,-0.327 -0.225,-0.079 -0.491,-0.116 -0.799,-0.116 -0.297,0 -0.551,0.034 -0.772,0.098 -0.218,0.064 -0.397,0.154 -0.54,0.27 -0.143,0.116 -0.251,0.251 -0.322,0.405 -0.071,0.154 -0.109,0.323 -0.109,0.495 0,0.36 0.184,0.664 0.552,0.908 0.021,0.014 0.043,0.028 0.065,0.042 C 152.023,7.188 152.5,7.5 153,8 h -3 c 0,0 -0.786,-0.624 -0.824,-0.691 -0.192,-0.356 -0.288,-0.773 -0.288,-1.249 z M 160,9 h -14 v 2 h 7.219 c 0.135,0.053 0.3,0.105 0.412,0.154 0.277,0.124 0.496,0.255 0.652,0.382 0.158,0.131 0.264,0.274 0.319,0.424 0.056,0.154 0.083,0.326 0.083,0.514 0,0.176 -0.034,0.341 -0.102,0.491 -0.068,0.154 -0.173,0.285 -0.312,0.394 -0.139,0.109 -0.319,0.195 -0.532,0.259 -0.218,0.063 -0.469,0.094 -0.762,0.094 -0.326,0 -0.622,-0.034 -0.889,-0.098 -0.266,-0.064 -0.491,-0.169 -0.679,-0.311 -0.188,-0.143 -0.333,-0.33 -0.438,-0.559 C 150.866,12.515 150.78,12.17 150.78,12 h -2.231 c 0,0.252 0.06,0.688 0.177,1.025 0.115,0.337 0.281,0.641 0.487,0.908 0.206,0.266 0.454,0.495 0.735,0.69 0.281,0.195 0.584,0.36 0.914,0.487 0.33,0.131 0.672,0.229 1.035,0.289 0.36,0.063 0.725,0.094 1.084,0.094 0.6,0 1.147,-0.068 1.635,-0.207 0.488,-0.139 0.908,-0.337 1.253,-0.592 0.345,-0.259 0.611,-0.574 0.802,-0.953 0.191,-0.379 0.281,-0.806 0.281,-1.286 0,-0.45 -0.078,-0.855 -0.232,-1.211 -0.037,-0.086 -0.078,-0.168 -0.127,-0.251 L 160,11 Z" />
	</g><g
   id="svg_19">
		<path
   id="svg_20"
   d="m 172,1 h -2 l -4.5,12 h 2 l 1.12,-3 h 4.75 l 1.12,3 h 2 z M 169.38,8 171,3.67 172.62,8 Z" />
	</g><g
   id="svg_21">
		<g
   id="svg_22">
			<path
   id="svg_23"
   d="m 194.5,8.87 c 0,0 -1.5,1.62 -1.5,2.62 0,0.83 0.67,1.5 1.5,1.5 0.83,0 1.5,-0.67 1.5,-1.5 0,-0.99 -1.5,-2.62 -1.5,-2.62 z m -1.79,-2.08 -6.8,-6.79 -1.061,1.06 1.59,1.59 -4.149,4.14 c -0.39,0.39 -0.39,1.02 0,1.41 l 4.5,4.5 c 0.2,0.2 0.45,0.3 0.71,0.3 0.26,0 0.51,-0.1 0.71,-0.29 l 4.5,-4.5 c 0.39,-0.39 0.39,-1.03 0,-1.42 z M 184.21,7 187.5,3.71 190.79,7 Z" />
		</g>
	</g><g
   id="svg_24">
		<path
   id="svg_25"
   d="m 201,6 h -2 V 2 h 7 v 2 h -5 z m 7,-2 V 2 h 7 v 4 h -2 V 4 Z m 0,10 h 5 v -2 h 2 v 4 h -7 z m -9,-2 h 2 v 2 h 5 v 2 h -7 z m 0,-4 h 4 V 6 l 3,3 -3,3 v -2 h -4 z m 9,1 3,-3 v 2 h 4 v 2 h -4 v 2 z" />
	</g><g
   id="svg_26">
		<path
   id="svg_27"
   d="m 218,16 h 10 V 14 H 218 Z M 228,6 h -10 v 2 h 10 z M 218,2 v 2 h 14 V 2 Z m 0,10 h 14 v -2 h -14 z" />
	</g><g
   id="svg_28">
		<path
   id="svg_29"
   d="m 238,14 v 2 h 10 v -2 z m 0,-8 v 2 h 10 V 6 Z m -2,6 h 14 v -2 h -14 z m 0,-10 v 2 h 14 V 2 Z" />
	</g><g
   id="svg_30">
		<path
   id="svg_31"
   d="M 6,34 H 16 V 32 H 6 Z M 2,30 H 16 V 28 H 2 Z M 2,20 v 2 h 14 v -2 z m 4,6 H 16 V 24 H 6 Z" />
	</g><g
   id="svg_32">
		<path
   id="svg_33"
   d="m 21,20 v 2 h 12 v -2 z m 2.5,7 H 26 v 7 h 2 v -7 h 2.5 L 27,23.5 Z" />
	</g><g
   id="svg_34">
		<path
   id="svg_35"
   d="M 48.5,21 H 46 v -3 h -2 v 3 H 41.5 L 45,24.5 Z M 39,26 v 2 h 12 v -2 z m 2.5,7 H 44 v 3 h 2 v -3 h 2.5 L 45,29.5 Z" />
	</g><g
   id="svg_36">
		<path
   id="svg_37"
   d="M 66.5,27 H 64 v -7 h -2 v 7 H 59.5 L 63,30.5 Z M 57,32 v 2 h 12 v -2 z" />
	</g><g
   id="svg_38">
		<path
   id="svg_39"
   d="M 88,21 H 74 v 2 H 88 Z M 74,33 h 4 V 31 H 74 Z M 85.5,26 H 74 v 2 h 11.75 c 0.83,0 1.5,0.67 1.5,1.5 0,0.83 -0.67,1.5 -1.5,1.5 H 83 v -2 l -3,3 3,3 v -2 h 2.5 C 87.43,33 89,31.43 89,29.5 89,27.57 87.43,26 85.5,26 Z" />
	</g><g
   id="svg_40">
		<path
   id="svg_41"
   d="m 92,21 v 1 l 6,6 v 5 l 2,-1 v -4 l 6,-6 v -1 z m 4,3 h 6 l -3,3 z" />
	</g><g
   id="svg_42"
   transform="translate(-3)">
		<polygon
   id="svg_43"
   points="122,34 122,32 115.1,32 120,27 115.1,22 122,22 122,20 112,20 112,21.8 117.5,27 112,32.2 112,34 " />
	</g><g
   id="svg_44">
		<polygon
   id="svg_45"
   points="139,25 131,25 135,29 " />
	</g><g
   id="svg_46">
		<polygon
   id="svg_47"
   points="151,23 151,31 155,27 " />
	</g><g
   id="svg_48"
   transform="matrix(0.88888889,0,0,1,18,0)">
		<path
   id="svg_49"
   d="m 163.9,27 c 0,-1.16 0.939,-2.1 2.1,-2.1 h 4 V 23 h -4 c -2.21,0 -4,1.79 -4,4 0,2.21 1.79,4 4,4 h 4 v -1.9 h -4 c -1.16,0 -2.1,-0.94 -2.1,-2.1 z M 176,23 h -4 v 1.9 h 4 c 1.16,0 2.1,0.94 2.1,2.1 0,1.16 -0.939,2.1 -2.1,2.1 h -4 V 31 h 4 c 2.21,0 4,-1.79 4,-4 0,-2.21 -1.79,-4 -4,-4 z m -8,5 h 6 v -2 h -6 z" />
	</g><g
   id="svg_50">
		<path
   id="svg_51"
   d="m 196,19 c 0.55,0 1,0.45 1,1 v 14 c 0,0.55 -0.45,1 -1,1 h -14 c -0.55,0 -1,-0.45 -1,-1 V 20 c 0,-0.55 0.45,-1 1,-1 z m -13,2 v 12 h 12 V 21 Z m 4,10 h -2 v -5 h 2 z m 3,0 h -2 v -8 h 2 z m 3,0 h -2 v -4 h 2 z" />
	</g><g
   id="svg_52">
		<g
   id="svg_53">
			<path
   id="svg_54"
   fill="none"
   stroke="#000000"
   d="m 199.5,21.5 h 15 v 12 h -15 z" />
			<path
   id="svg_55"
   d="m 204,26 h 1 v 7 h -1 z" />
			<path
   id="svg_56"
   fill="#d8d8d8"
   d="m 200,22 h 14 v 3 h -14 z" />
			<path
   id="svg_57"
   d="m 200,25 h 14 v 1 h -14 z m 0,4 h 14 v 1 h -14 z" />
		</g>
	</g><g
   id="svg_58">
		<path
   id="svg_59"
   d="m 220,25.5 c -0.83,0 -1.5,0.67 -1.5,1.5 0,0.83 0.67,1.5 1.5,1.5 0.83,0 1.5,-0.67 1.5,-1.5 0,-0.83 -0.67,-1.5 -1.5,-1.5 z m 10,0 c -0.83,0 -1.5,0.67 -1.5,1.5 0,0.83 0.67,1.5 1.5,1.5 0.83,0 1.5,-0.67 1.5,-1.5 0,-0.83 -0.67,-1.5 -1.5,-1.5 z m -5,0 c -0.83,0 -1.5,0.67 -1.5,1.5 0,0.83 0.67,1.5 1.5,1.5 0.83,0 1.5,-0.67 1.5,-1.5 0,-0.83 -0.67,-1.5 -1.5,-1.5 z" />
	</g><g
   id="svg_60">
		<path
   id="svg_61"
   d="m 244,26 v -4 h -2 v 4 h -4 v 2 h 4 v 4 h 2 v -4 h 4 v -2 z" />
	</g><g
   id="svg_62">
		<path
   id="svg_63"
   d="M 2,38 V 52 H 16 V 38 Z M 8,50 H 4 V 46 H 8 Z M 8,44 H 4 v -4 h 4 z m 6,6 h -4 v -4 h 4 z m 0,-6 h -4 v -4 h 4 z" />
	</g><g
   id="svg_64">
		<g
   id="svg_65">
			<path
   id="svg_66"
   opacity="0.54"
   d="m 20,52 h 2 v -2 h -2 z m 2,-11 h -2 v 2 h 2 z m 1,11 h 2 v -2 h -2 z m 8,-14 h -2 v 2 h 2 z m -9,0 h -2 v 2 h 2 z m 3,0 h -2 v 2 h 2 z m -5,11 h 2 v -2 h -2 z m 9,3 h 2 v -2 h -2 z m 3,-14 v 2 h 2 v -2 z m 0,5 h 2 v -2 h -2 z m 0,9 h 2 v -2 h -2 z m 0,-3 h 2 v -2 h -2 z" />
			<polygon
   id="svg_67"
   points="26,46 26,52 28,52 28,46 34,46 34,44 28,44 28,38 26,38 26,44 20,44 20,46 " />
		</g>
	</g><g
   id="svg_68">
		<g
   id="svg_69">
			<path
   id="svg_70"
   opacity="0.54"
   d="m 44,52 h 2 V 50 H 44 Z M 41,40 h 2 v -2 h -2 z m 3,9 h 2 v -2 h -2 z m -3,3 h 2 v -2 h -2 z m -3,-9 h 2 v -2 h -2 z m 0,9 h 2 v -2 h -2 z m 0,-12 h 2 v -2 h -2 z m 0,9 h 2 v -2 h -2 z m 12,0 h 2 v -2 h -2 z m 0,3 h 2 v -2 h -2 z m 0,-9 h 2 v -2 h -2 z m 0,-5 v 2 h 2 v -2 z m -6,2 h 2 v -2 h -2 z m 3,0 h 2 v -2 h -2 z m -3,3 h 2 v -2 h -2 z m 3,9 h 2 v -2 h -2 z" />
			<polygon
   id="svg_71"
   points="52,46 52,44 38,44 38,46 " />
		</g>
	</g><g
   id="svg_72">
		<g
   id="svg_73">
			<path
   id="svg_74"
   opacity="0.54"
   d="m 59,52 h 2 v -2 h -2 z m -3,-9 h 2 v -2 h -2 z m 0,-3 h 2 v -2 h -2 z m 3,6 h 2 v -2 h -2 z m 0,-6 h 2 v -2 h -2 z m -3,12 h 2 v -2 h -2 z m 0,-6 h 2 v -2 h -2 z m 0,3 h 2 V 47 H 56 Z M 68,38 v 2 h 2 v -2 z m 0,8 h 2 v -2 h -2 z m 0,6 h 2 v -2 h -2 z m 0,-9 h 2 v -2 h -2 z m 0,6 h 2 v -2 h -2 z m -3,3 h 2 v -2 h -2 z m 0,-6 h 2 v -2 h -2 z m 0,-6 h 2 v -2 h -2 z" />
			<polygon
   id="svg_75"
   points="64,52 64,38 62,38 62,52 " />
		</g>
	</g><g
   id="svg_76">
		<g
   id="svg_77">
			<path
   id="svg_78"
   opacity="0.54"
   d="m 82,41 h -2 v 2 h 2 z m 3,3 h -2 v 2 h 2 z m -3,0 h -2 v 2 h 2 z m 0,3 h -2 v 2 h 2 z m -3,-3 h -2 v 2 h 2 z" />
			<path
   id="svg_79"
   d="M 74,38 H 88 V 52 H 74 Z M 86,50 V 40 H 76 v 10 z" />
		</g>
	</g><g
   id="svg_80">
		<g
   id="svg_81">
			<path
   id="svg_82"
   opacity="0.54"
   d="m 98,46 h 2 v -2 h -2 z m 0,-3 h 2 v -2 h -2 z m 0,6 h 2 v -2 h -2 z m 0,3 h 2 v -2 h -2 z m -3,0 h 2 v -2 h -2 z m 0,-12 h 2 v -2 h -2 z m 0,6 h 2 v -2 h -2 z m 9,6 h 2 v -2 h -2 z m 0,-6 h 2 v -2 h -2 z m 0,3 h 2 v -2 h -2 z m 0,-6 h 2 v -2 h -2 z m -6,-3 h 2 v -2 h -2 z m 6,-2 v 2 h 2 v -2 z m -3,14 h 2 v -2 h -2 z m 0,-6 h 2 v -2 h -2 z m 0,-6 h 2 v -2 h -2 z" />
			<polygon
   id="svg_83"
   points="94,52 94,38 92,38 92,52 " />
		</g>
	</g><g
   id="svg_84">
		<g
   id="svg_85">
			<path
   id="svg_86"
   opacity="0.54"
   d="m 113,46 h 2 v -2 h -2 z m -3,6 h 2 v -2 h -2 z m 6,0 h 2 v -2 h -2 z m 0,-3 h 2 v -2 h -2 z m -3,3 h 2 v -2 h -2 z m -3,-3 h 2 v -2 h -2 z m 6,-3 h 2 v -2 h -2 z m -6,-3 h 2 v -2 h -2 z m 0,3 h 2 v -2 h -2 z m 12,0 h 2 v -2 h -2 z m 0,3 h 2 v -2 h -2 z m 0,-6 h 2 v -2 h -2 z m -6,0 h 2 v -2 h -2 z m 3,9 h 2 v -2 h -2 z m 0,-6 h 2 v -2 h -2 z m 3,6 h 2 v -2 h -2 z" />
			<polygon
   id="svg_87"
   points="110,40 124,40 124,38 110,38 " />
		</g>
	</g><g
   id="svg_88">
		<g
   id="svg_89">
			<path
   id="svg_90"
   opacity="0.54"
   d="m 128,40 h 2 v -2 h -2 z m 3,0 h 2 v -2 h -2 z m 0,6 h 2 v -2 h -2 z m 0,6 h 2 v -2 h -2 z m -3,-9 h 2 v -2 h -2 z m 0,3 h 2 v -2 h -2 z m 0,6 h 2 v -2 h -2 z m 0,-3 h 2 v -2 h -2 z m 9,-3 h 2 v -2 h -2 z m -3,6 h 2 v -2 h -2 z m 3,0 h 2 v -2 h -2 z m -3,-12 h 2 v -2 h -2 z m 3,0 h 2 v -2 h -2 z m -3,9 h 2 v -2 h -2 z m 0,-6 h 2 v -2 h -2 z m 0,3 h 2 v -2 h -2 z" />
			<polygon
   id="svg_91"
   points="140,52 142,52 142,38 140,38 " />
		</g>
	</g><g
   id="svg_92">
		<g
   id="svg_93">
			<path
   id="svg_94"
   opacity="0.54"
   d="m 150.83,38 h -2 v 2 h 2 z m 3,6 h -2 v 2 h 2 z m 0,3 h -2 v 2 h 2 z m 3,-3 h -2 v 2 h 2 z m -6,0 h -2 v 2 h 2 z m 6,-6 h -2 v 2 h 2 z m -3,3 h -2 v 2 h 2 z m 0,-3 h -2 v 2 h 2 z m -6,9 h -2 v 2 h 2 z m 10,2 h 2 v -2 h -2 z m 0,-6 h 2 v -2 h -2 z m 0,3 h 2 v -2 h -2 z m 0,-8 v 2 h 2 v -2 z m -10,0 h -2 v 2 h 2 z m 0,3 h -2 v 2 h 2 z m 0,3 h -2 v 2 h 2 z" />
			<polygon
   id="svg_95"
   points="159.83,52 159.83,50 145.83,50 145.83,52 " />
		</g>
	</g><g
   id="svg_96">
		<path
   id="svg_97"
   opacity="0.54"
   d="m 170,52 h 2 v -2 h -2 z m -3,-6 h 2 v -2 h -2 z m 0,-6 h 2 v -2 h -2 z m 3,9 h 2 v -2 h -2 z m -3,3 h 2 v -2 h -2 z m -3,-9 h 2 v -2 h -2 z m 0,9 h 2 v -2 h -2 z m 0,-12 h 2 v -2 h -2 z m 0,6 h 2 v -2 h -2 z m 6,0 h 2 v -2 h -2 z m -6,3 h 2 v -2 h -2 z m 12,0 h 2 v -2 h -2 z m 0,3 h 2 v -2 h -2 z m 0,-6 h 2 v -2 h -2 z m 0,-3 h 2 v -2 h -2 z m 0,-5 v 2 h 2 v -2 z m -6,2 h 2 v -2 h -2 z m 3,0 h 2 v -2 h -2 z m -3,3 h 2 v -2 h -2 z m 3,9 h 2 v -2 h -2 z m 0,-6 h 2 v -2 h -2 z" />
	</g><g
   id="svg_98">
		<path
   id="svg_99"
   d="m 190.5,39.62 -6.5,6.5 V 49 h 2.88 l 6.5,-6.5 z m 5.35,0.4 c 0.2,-0.199 0.2,-0.51 0,-0.709 l -2.17,-2.17 c -0.199,-0.201 -0.51,-0.201 -0.709,0 l -1.351,1.359 2.88,2.88 z" />
	</g><g
   id="svg_100">
		<path
   id="svg_101"
   d="m 200,40 h 14 v 2 h -14 z m 0,4 h 6 v 2 h -6 z m 0,4 h 2 v 2 h -2 z m 8,-4 h 6 v 2 h -6 z m -4,4 h 2 v 2 h -2 z m 4,0 h 2 v 2 h -2 z m 4,0 h 2 v 2 h -2 z" />
	</g><g
   id="svg_102">
		<polygon
   id="svg_103"
   points="227,49 227,41 223,45 " />
	</g><g
   id="svg_104">
		<polygon
   id="svg_105"
   points="241.939,45 239.471,47.47 240.529,48.53 243,46.061 245.471,48.53 246.529,47.47 244.061,45 246.529,42.53 245.471,41.47 243,43.939 240.529,41.47 239.471,42.53 " />
	</g><g
   id="svg_106">
		<polygon
   id="svg_107"
   points="13.5,61.5 12.44,60.439 9,63.88 5.56,60.439 4.5,61.5 9,66 " />
	</g><g
   id="svg_108">
		<polygon
   id="svg_109"
   points="31.5,64.5 27,60 22.5,64.5 23.56,65.561 27,62.12 30.44,65.561 " />
	</g><g
   id="svg_110">
		<polygon
   id="svg_111"
   points="46.5,67.5 47.56,66.439 44.12,63 47.56,59.561 46.5,58.5 42,63 " />
	</g><g
   id="svg_112">
		<polygon
   id="svg_113"
   points="61.5,67.5 66,63 61.5,58.5 60.44,59.561 63.88,63 60.44,66.439 " />
	</g><g
   id="svg_114">
		<polygon
   id="svg_115"
   points="75,64 75,62 83.875,62 79.94,58.061 81,57 87,63 81,69 79.94,67.939 83.875,64 " />
	</g><polygon
   id="svg_117"
   points="96.125,62 100.06,58.061 99,57 93,63 99,69 100.06,67.939 96.125,64 105,64 105,62 " /><line
   id="svg_119"
   fill="none"
   stroke="#000000"
   stroke-width="1.5"
   x1="112"
   y1="60"
   x2="112.157"
   y2="69.420998" /><line
   id="svg_120"
   fill="none"
   stroke="#000000"
   stroke-width="1.5"
   x1="112.157"
   y1="68.635002"
   x2="122.745"
   y2="68.635002" /><line
   id="svg_121"
   fill="none"
   stroke="#000000"
   stroke-width="1.5"
   x1="123"
   y1="57.653999"
   x2="123.137"
   y2="69.418999" /><line
   id="svg_122"
   fill="none"
   stroke="#000000"
   stroke-width="1.5"
   x1="115.687"
   y1="57.066002"
   x2="123.726"
   y2="57.066002" /><line
   id="svg_123"
   fill="none"
   stroke="#000000"
   stroke-width="1.5"
   x1="111.765"
   y1="60.791"
   x2="116.471"
   y2="56.674" /><line
   id="svg_124"
   fill="none"
   stroke="#000000"
   stroke-width="1.5"
   x1="112.549"
   y1="61.380001"
   x2="116.471"
   y2="61.380001" /><line
   id="svg_125"
   fill="none"
   stroke="#000000"
   stroke-width="1.5"
   x1="116.471"
   y1="57"
   x2="116.471"
   y2="62.164001" /><line
   id="svg_126"
   fill="none"
   stroke="#000000"
   stroke-width="1.5"
   x1="133.334"
   y1="57.066002"
   x2="129.216"
   y2="62.360001" /><line
   id="svg_128"
   fill="none"
   stroke="#000000"
   stroke-width="1.5"
   x1="132.94099"
   y1="57.262001"
   x2="132.745"
   y2="69.223" /><line
   id="svg_129"
   fill="none"
   stroke="#000000"
   stroke-width="1.5"
   x1="137.05901"
   y1="57.262001"
   x2="137.05901"
   y2="69.027" /><line
   id="svg_130"
   fill="none"
   stroke="#000000"
   stroke-width="1.5"
   x1="136.86301"
   y1="68.831001"
   x2="140.196"
   y2="63.536999" /><ellipse
   id="svg_118"
   fill="#ffffff"
   stroke="#000000"
   stroke-width="1.5"
   cx="150.593"
   cy="60.48"
   rx="3.1359999"
   ry="3.0510001" /><line
   id="svg_127"
   fill="none"
   stroke="#000000"
   stroke-width="1.5"
   x1="153.05099"
   y1="63.022999"
   x2="157.457"
   y2="68.107002" /><g
   id="g496"
   transform="matrix(0.7,0,0,0.73684211,-1.4,71.789474)"><path
     d="m 4,5 h 13 v 7 h 2 V 5 C 19,3.897 18.103,3 17,3 H 4 C 2.897,3 2,3.897 2,5 v 12 c 0,1.103 0.897,2 2,2 h 8 V 17 H 4 Z"
     id="path481" /><path
     d="M 8,11 5,15 H 16 L 12,9 9,13 Z"
     id="path483" /><path
     d="m 19,14 h -2 v 3 h -3 v 2 h 3 v 3 h 2 v -3 h 3 v -2 h -3 z"
     id="path485" /></g><g
   id="g879"
   transform="matrix(0.02734236,0,0,0.02734344,18.999813,73.999808)"><g
     transform="translate(-1)"
     id="g821">
	<g
   id="g819">
		<g
   id="g817">
			<path
   d="M 491.683,213.34 H 470.35 v -64 c 0,-11.782 -9.551,-21.333 -21.333,-21.333 H 406.35 V 21.34 C 406.35,9.558 396.799,0.007 385.017,0.007 H 107.683 C 95.901,0.007 86.35,9.558 86.35,21.34 v 42.667 h -64 c -11.782,0 -21.333,9.551 -21.333,21.333 v 404.74 c -0.028,0.943 0.001,1.878 0.097,2.8 0,0.004 10e-4,0.008 10e-4,0.012 0.045,0.426 0.102,0.849 0.172,1.269 1.206,8.272 6.649,13.9 13.286,16.394 0.103,0.04 0.208,0.078 0.312,0.117 0.26,0.093 0.517,0.189 0.78,0.273 1.035,0.339 2.109,0.598 3.215,0.777 0.043,0.007 0.086,0.013 0.13,0.02 0.451,0.07 0.908,0.126 1.37,0.168 0.179,0.017 0.357,0.036 0.536,0.049 0.129,0.008 0.26,0.011 0.389,0.017 0.586,0.033 1.172,0.044 1.758,0.032 H 406.35 c 9.182,0 17.335,-5.876 20.239,-14.587 l 85.333,-256 c 4.604,-13.816 -5.678,-28.081 -20.239,-28.081 z m -64,-42.667 V 213.34 H 406.35 v -42.667 z m -298.667,-128 h 234.667 v 106.667 64 H 129.016 v -128 z m -85.333,64 H 86.35 v 124.538 l -42.667,128 z M 390.974,469.34 H 51.948 l 34.533,-103.6 36.578,-109.733 h 261.957 64 13.068 z"
   id="path811" />
			<path
   d="m 193.016,128.006 h 106.667 c 11.782,0 21.333,-9.551 21.333,-21.333 0,-11.782 -9.551,-21.333 -21.333,-21.333 H 193.016 c -11.782,0 -21.333,9.551 -21.333,21.333 0,11.782 9.551,21.333 21.333,21.333 z"
   id="path813" />
			<path
   d="m 193.016,192.006 h 106.667 c 11.782,0 21.333,-9.551 21.333,-21.333 0,-11.782 -9.551,-21.333 -21.333,-21.333 H 193.016 c -11.782,0 -21.333,9.551 -21.333,21.333 0,11.782 9.551,21.333 21.333,21.333 z"
   id="path815" />
		</g>
	</g>
</g><g
     id="g823">
</g><g
     id="g825">
</g><g
     id="g827">
</g><g
     id="g829">
</g><g
     id="g831">
</g><g
     id="g833">
</g><g
     id="g835">
</g><g
     id="g837">
</g><g
     id="g839">
</g><g
     id="g841">
</g><g
     id="g843">
</g><g
     id="g845">
</g><g
     id="g847">
</g><g
     id="g849">
</g><g
     id="g851">
</g></g><g
   id="g1171"
   transform="matrix(0.08685904,0,0,0.08520781,36.999924,73.999968)"><g
     id="g1116">
	<path
   d="M 151.764,10.894 C 137.242,-3.628 113.612,-3.631 99.088,10.886 l 0.003,0.003 -22.979,22.983 10.607,10.605 22.983,-22.988 -0.002,-0.002 c 8.678,-8.663 22.785,-8.658 31.457,0.014 8.673,8.672 8.672,22.786 0,31.461 l -34.486,34.484 c -4.201,4.202 -9.787,6.516 -15.729,6.516 -5.942,0 -11.529,-2.314 -15.73,-6.516 L 64.605,98.052 c 7.035,7.035 16.389,10.91 26.338,10.91 9.949,0 19.303,-3.875 26.335,-10.91 l 34.487,-34.484 c 14.519,-14.525 14.519,-38.155 -10e-4,-52.674 z"
   id="path1112" />
	<path
   d="m 52.96,141.162 v 0 c -8.675,8.67 -22.788,8.668 -31.461,-0.005 -8.673,-8.675 -8.673,-22.791 -10e-4,-31.465 L 55.98,75.21 c 8.675,-8.674 22.789,-8.674 31.462,0 L 98.05,64.604 C 83.526,50.081 59.896,50.08 45.374,64.604 L 10.89,99.086 c -14.519,14.523 -14.519,38.154 10e-4,52.678 7.263,7.262 16.801,10.893 26.341,10.892 9.536,0 19.074,-3.629 26.333,-10.887 l 0.002,-0.001 22.984,-22.99 -10.608,-10.606 z"
   id="path1114" />
</g><g
     id="g1118">
</g><g
     id="g1120">
</g><g
     id="g1122">
</g><g
     id="g1124">
</g><g
     id="g1126">
</g><g
     id="g1128">
</g><g
     id="g1130">
</g><g
     id="g1132">
</g><g
     id="g1134">
</g><g
     id="g1136">
</g><g
     id="g1138">
</g><g
     id="g1140">
</g><g
     id="g1142">
</g><g
     id="g1144">
</g><g
     id="g1146">
</g></g><g
   id="g316"
   transform="matrix(0.03224321,0,0,0.02857143,54.100414,74)"><g
     id="g244">
	<g
   id="g212">
		<g
   id="g210">
			<path
   d="m 245,0 c -9.5,0 -17.2,7.7 -17.2,17.2 V 348.4 L 169,289.6 c -6.7,-6.7 -17.6,-6.7 -24.3,0 -6.7,6.7 -6.7,17.6 0,24.3 l 88.1,88.1 c 3.3,3.3 7.7,5 12.1,5 4.4,0 8.8,-1.7 12.1,-5 l 88.1,-88.1 c 6.7,-6.7 6.7,-17.6 0,-24.3 -6.7,-6.7 -17.6,-6.7 -24.3,0 L 262,348.4 V 17.1 C 262.1,7.6 254.5,0 245,0 Z"
   id="path206" />
			<path
   d="m 462.1,472.9 v -99.7 c 0,-9.5 -7.7,-17.2 -17.2,-17.2 -9.5,0 -17.2,7.7 -17.2,17.2 v 82.6 H 62.2 v -82.6 c 0,-9.5 -7.7,-17.2 -17.1,-17.2 -9.4,0 -17.2,7.7 -17.2,17.2 v 99.7 c 0,9.5 7.7,17.1 17.2,17.1 h 399.8 c 9.5,0 17.2,-7.6 17.2,-17.1 z"
   id="path208" />
		</g>
	</g>
	<g
   id="g214">
	</g>
	<g
   id="g216">
	</g>
	<g
   id="g218">
	</g>
	<g
   id="g220">
	</g>
	<g
   id="g222">
	</g>
	<g
   id="g224">
	</g>
	<g
   id="g226">
	</g>
	<g
   id="g228">
	</g>
	<g
   id="g230">
	</g>
	<g
   id="g232">
	</g>
	<g
   id="g234">
	</g>
	<g
   id="g236">
	</g>
	<g
   id="g238">
	</g>
	<g
   id="g240">
	</g>
	<g
   id="g242">
	</g>
</g><g
     id="g246">
</g><g
     id="g248">
</g><g
     id="g250">
</g><g
     id="g252">
</g><g
     id="g254">
</g><g
     id="g256">
</g><g
     id="g258">
</g><g
     id="g260">
</g><g
     id="g262">
</g><g
     id="g264">
</g><g
     id="g266">
</g><g
     id="g268">
</g><g
     id="g270">
</g><g
     id="g272">
</g><g
     id="g274">
</g></g>
<path
   d="m 80.7,80.299913 h -4.199999 a 0.69999995,0.69999023 0 0 0 0,1.399979 H 80.7 a 0.69999995,0.69999023 0 0 0 0,-1.399979 z m 2.800001,-2.799962 h -7 a 0.70000006,0.69999035 0 0 0 0,1.39998 h 7 a 0.70000006,0.69999035 0 0 0 0,-1.39998 z M 84.900001,74 h -9.8 A 2.0999999,2.0999707 0 0 0 73,76.09997 v 6.999903 a 2.0999999,2.0999707 0 0 0 2.100001,2.099971 H 83.213 l 2.590001,2.596964 a 0.69999995,0.69999023 0 0 0 0.497,0.202997 0.58799996,0.58799178 0 0 0 0.265999,-0.056 A 0.69999995,0.69999023 0 0 0 87,87.299813 V 76.09997 A 2.0999999,2.0999707 0 0 0 84.900001,74 Z m 0.699998,11.612838 -1.602998,-1.609978 a 0.69999995,0.69999023 0 0 0 -0.497,-0.202997 h -8.4 a 0.69999995,0.69999023 0 0 1 -0.7,-0.69999 V 76.09997 a 0.69999995,0.69999023 0 0 1 0.7,-0.699989 h 9.8 a 0.69999995,0.69999023 0 0 1 0.699998,0.699989 z"
   id="path240"
   style="stroke-width:0.699995" /><path
   d="m 164.17768,59.886832 a 0.77784627,0.77785898 0 0 0 1.55569,0 v -0.777857 h 0.77783 a 0.77784292,0.77785565 0 0 0 0,-1.555709 h -0.77783 V 56.77541 a 0.77784627,0.77785898 0 0 0 -1.55569,0 v 0.777856 h -0.77785 a 0.77784292,0.77785565 0 0 0 0,1.555709 h 0.77785 z m 10.11195,-2.333566 h -4.66704 a 0.77784292,0.77785565 0 0 0 0,1.555709 h 4.66704 a 0.77784292,0.77785565 0 0 1 0.77786,0.777857 v 7.560756 l -1.22121,-1.127889 a 0.77784292,0.77785565 0 0 0 -0.52895,-0.210021 h -6.80613 a 0.77784292,0.77785565 0 0 1 -0.77783,-0.777857 v -2.333565 a 0.77784627,0.77785898 0 0 0 -1.55569,0 v 2.333565 a 2.3335287,2.3335669 0 0 0 2.33352,2.333566 h 6.50278 l 2.33353,2.123547 a 0.77784292,0.77785565 0 0 0 0.49782,0.210022 0.85562721,0.85564121 0 0 0 0.31114,-0.06223 0.77784292,0.77785565 0 0 0 0.4667,-0.715626 v -9.334268 a 2.3335287,2.3335669 0 0 0 -2.33354,-2.333566 z"
   id="path249"
   style="stroke-width:0.777849" /><path
   d="m 218.66507,62.943222 a 0.6909606,0.6580725 0 0 0 0.55866,0 0.73506447,0.70007714 0 0 0 0.24257,-0.147015 l 2.20519,-2.100232 a 0.73807391,0.70294331 0 1 0 -1.04379,-0.994109 l -0.94824,0.9101 v -3.913431 a 0.73506679,0.70007933 0 0 0 -1.47013,0 v 3.913431 l -0.94822,-0.9101 a 0.7380731,0.70294255 0 1 0 -1.04379,0.994109 l 2.20519,2.100232 a 0.73506447,0.70007714 0 0 0 0.24256,0.147015 z m 9.10011,-4.144456 h -3.67533 a 0.73506487,0.7000775 0 0 0 0,1.400155 h 3.67533 a 0.73506447,0.70007714 0 0 1 0.73506,0.700077 v 6.804749 l -1.15406,-1.015111 a 0.73506447,0.70007714 0 0 0 -0.49983,-0.189021 h -6.43182 a 0.73506447,0.70007714 0 0 1 -0.73507,-0.700078 V 65.09946 a 0.73506679,0.70007933 0 0 0 -1.47013,0 v 0.700077 a 2.2051935,2.1002314 0 0 0 2.2052,2.100232 h 6.14514 l 2.20519,1.911211 A 0.73506447,0.70007714 0 0 0 229.26471,70 a 0.80857092,0.77008484 0 0 0 0.29401,-0.056 0.73506447,0.70007714 0 0 0 0.44105,-0.644071 v -8.400926 a 2.2051935,2.1002314 0 0 0 -2.23459,-2.100232 z"
   id="path1028"
   style="stroke-width:0.717358" /><path
   d="m 200.20793,62.298079 a 0.73514,0.70017667 0 0 0 1.47028,0 v -3.913975 l 0.94833,0.910226 a 0.73513781,0.70017458 0 0 0 1.0439,0 0.73513781,0.70017458 0 0 0 0,-0.994247 l -2.20542,-2.100524 a 0.73513781,0.70017458 0 0 0 -0.2426,-0.147037 0.73513781,0.70017458 0 0 0 -0.5587,0 0.73513781,0.70017458 0 0 0 -0.24259,0.147037 l -2.20542,2.100524 a 0.73814723,0.70304087 0 0 0 1.0439,0.994247 l 0.94832,-0.910226 z m 9.55679,-3.500873 h -3.67569 a 0.73513825,0.700175 0 0 0 0,1.40035 h 3.67569 a 0.73513781,0.70017458 0 0 1 0.73514,0.700174 v 6.805697 l -1.15417,-1.015253 a 0.73513781,0.70017458 0 0 0 -0.49989,-0.189047 h -6.43246 a 0.73513781,0.70017458 0 0 1 -0.73513,-0.700175 v -0.700174 a 0.73514,0.70017667 0 0 0 -1.47028,0 v 0.700174 a 2.2054134,2.1005237 0 0 0 2.20541,2.100524 h 6.14576 l 2.20541,1.911476 A 0.73513781,0.70017458 0 0 0 211.26441,70 a 0.8086516,0.77019204 0 0 0 0.29405,-0.05601 0.73513781,0.70017458 0 0 0 0.44108,-0.64416 v -8.402095 a 2.2054134,2.1005237 0 0 0 -2.23482,-2.100524 z"
   id="path1315"
   style="stroke-width:0.717444" /><path
   d="m 191.89906,58.799994 h -2.80125 a 0.70031272,0.700001 0 0 0 0,1.400002 h 2.80125 a 0.70031201,0.7000003 0 0 1 0.70031,0.699999 v 6.804004 l -1.09949,-1.015001 a 0.70031201,0.7000003 0 0 0 -0.47621,-0.189 h -6.12773 a 0.70031201,0.7000003 0 0 1 -0.70032,-0.699999 v -0.700002 a 0.70031201,0.7000003 0 0 0 -1.40061,0 v 0.700002 a 2.1009359,2.1000009 0 0 0 2.10093,2.1 h 5.85461 L 192.85148,69.811 A 0.70031201,0.7000003 0 0 0 193.29968,70 0.7703432,0.77000034 0 0 0 193.57981,69.944 0.70031201,0.7000003 0 0 0 194,69.300001 v -8.400004 a 2.1009359,2.1000009 0 0 0 -2.10094,-2.100001 z m -5.92465,3.178002 a 3.50156,3.5000015 0 1 0 -2.47908,1.022001 3.50156,3.5000015 0 0 0 2.47908,-1.022001 z m -4.58003,-2.478 a 2.1009359,2.1000009 0 0 1 2.10095,-2.100001 2.1009359,2.1000009 0 0 1 0.89639,0.209999 l -2.80125,2.800001 a 2.1009359,2.1000009 0 0 1 -0.19609,-0.909999 z m 3.99177,-0.903001 a 2.1009359,2.1000009 0 0 1 0.2101,0.903001 2.1009359,2.1000009 0 0 1 -2.99734,1.890001 z"
   id="path1487"
   style="stroke-width:0.700156" /><path
   d="m 235.55436,59.887875 a 0.77784627,0.77785898 0 0 0 1.55569,0 v -0.777857 h 0.77783 a 0.77784292,0.77785565 0 0 0 0,-1.555709 h -0.77783 v -0.777856 a 0.77784627,0.77785898 0 0 0 -1.55569,0 v 0.777856 h -0.77785 a 0.77784292,0.77785565 0 0 0 0,1.555709 h 0.77785 z m 10.11195,-2.333566 h -4.66704 a 0.77784292,0.77785565 0 0 0 0,1.555709 h 4.66704 a 0.77784292,0.77785565 0 0 1 0.77786,0.777857 v 7.560756 l -1.22121,-1.127889 a 0.77784292,0.77785565 0 0 0 -0.52895,-0.210021 h -6.80613 a 0.77784292,0.77785565 0 0 1 -0.77783,-0.777857 v -2.333565 a 0.77784627,0.77785898 0 0 0 -1.55569,0 v 2.333565 a 2.3335287,2.3335669 0 0 0 2.33352,2.333566 h 6.50278 l 2.33353,2.123547 a 0.77784292,0.77785565 0 0 0 0.49782,0.210022 0.85562721,0.85564121 0 0 0 0.31114,-0.06223 0.77784292,0.77785565 0 0 0 0.4667,-0.715626 v -9.334268 a 2.3335287,2.3335669 0 0 0 -2.33354,-2.333566 z"
   id="path249-8"
   style="stroke-width:0.777849" /><g
   id="g2017"
   transform="matrix(0.4375,0,0,0.4375,91,74)"><path
     d="M 28,30 H 22 A 2.0021,2.0021 0 0 1 20,28 V 10 a 2.0021,2.0021 0 0 1 2,-2 h 6 a 2.0021,2.0021 0 0 1 2,2 v 18 a 2.0021,2.0021 0 0 1 -2,2 z M 22,10 v 18 h 6 V 10 Z"
     id="path2002" /><polygon
     points="16,6.172 11.828,2 10.414,3.414 16,9 21.586,3.414 20.172,2 "
     id="polygon2004" /><path
     d="M 10,30 H 4 A 2.0021,2.0021 0 0 1 2,28 V 10 A 2.0021,2.0021 0 0 1 4,8 h 6 a 2.0021,2.0021 0 0 1 2,2 v 18 a 2.0021,2.0021 0 0 1 -2,2 z M 4,10 v 18 h 6 V 10 Z"
     id="path2006" /><rect
     id="_Transparent_Rectangle_"
     data-name="&lt;Transparent Rectangle&gt;"
     class="cls-1"
     width="32"
     height="32"
     x="0"
     y="0" /></g><g
   id="g2038"
   transform="matrix(0.4375,0,0,0.4375,109,74)"><path
     d="M 28,12 H 10 A 2.0021,2.0021 0 0 1 8,10 V 4 a 2.0021,2.0021 0 0 1 2,-2 h 18 a 2.0021,2.0021 0 0 1 2,2 v 6 a 2.0021,2.0021 0 0 1 -2,2 z M 10,4 v 6 H 28 V 4 Z"
     id="path2023" /><path
     d="M 28,30 H 10 A 2.0021,2.0021 0 0 1 8,28 v -6 a 2.0021,2.0021 0 0 1 2,-2 h 18 a 2.0021,2.0021 0 0 1 2,2 v 6 a 2.0021,2.0021 0 0 1 -2,2 z M 10,22 v 6 h 18 v -6 z"
     id="path2025" /><polygon
     points="3.414,10.414 2,11.828 6.172,16 2,20.172 3.414,21.586 9,16 "
     id="polygon2027" /><rect
     id="_Transparent_Rectangle_-1"
     data-name="&lt;Transparent Rectangle&gt;"
     class="cls-1"
     width="32"
     height="32"
     x="0"
     y="0" /></g>
	 <g transform="matrix(0.75,0,0,0.75,135,80)" id="g2039">
<path style="stroke: none; stroke-width: 1; stroke-dasharray: none; stroke-linecap: butt; stroke-dashoffset: 0; stroke-linejoin: miter; stroke-miterlimit: 4; is-custom-font: none; font-file-url: none; fill: rgb(0,0,0); fill-rule: nonzero; opacity: 1;" vector-effect="non-scaling-stroke" transform=" translate(-9.9931, -9.9861)" d="M 16.88 9.1 A 4 4 0 0 1 16 17 H 5 a 5 5 0 0 1 -1 -9.9 V 7 a 3 3 0 0 1 4.52 -2.59 A 4.98 4.98 0 0 1 17 8 c 0 0.38 -0.04 0.74 -0.12 1.1 z M 11 11 h 3 l -4 -4 l -4 4 h 3 v 3 h 2 v -3 z" stroke-linecap="round"/>
</g>
<g transform="matrix(0.72,0,0,0.72,153,80)" id="g2040">
<path style="stroke: none; stroke-width: 1; stroke-dasharray: none; stroke-linecap: butt; stroke-dashoffset: 0; stroke-linejoin: miter; stroke-miterlimit: 4; is-custom-font: none; font-file-url: none; fill: rgb(0,0,0); fill-rule: evenodd; opacity: 1;" vector-effect="non-scaling-stroke" transform=" translate(-12, -12.5)" d="M 17 19 L 17 17 L 18 17 C 19.6568542 17 21 15.6568542 21 14 C 21 12.3431458 19.6568542 11 18 11 C 17.9686786 11.0001061 17.9686786 11.0001061 17.9374883 11.0006341 L 17.0737589 11.0181765 L 16.9309417 10.1661557 C 16.5303438 7.77626335 14.4511274 6 12 6 C 10.1923998 6 8.55429829 6.96642863 7.6664163 8.50398349 L 7.39066076 8.98151234 L 6.83965518 9.0031404 C 4.69934052 9.08715198 3 10.8504451 3 13 C 3 15.209139 4.790861 17 7 17 L 7 19 C 3.6862915 19 1 16.3137085 1 13 C 1 9.95876977 3.26703071 7.43346119 6.21989093 7.05027488 C 7.50901474 5.16507238 9.65343535 4 12 4 C 15.1586186 4 17.8750012 6.1056212 18.7254431 9.0522437 C 21.1430685 9.40362782 23 11.4849591 23 14 C 23 16.7614237 20.7614237 19 18 19 L 17 19 Z M 13 14.4142136 L 13 21 L 11 21 L 11 14.4142136 L 8.70710678 16.7071068 L 7.29289322 15.2928932 L 12 10.5857864 L 16.7071068 15.2928932 L 15.2928932 16.7071068 L 13 14.4142136 Z" stroke-linecap="round"/>
</g>


<g transform="matrix(0.82,0,0,0.82,162,72)" id="g2041">
<path fill="#fefffe" d="M -0.5,-0.5 C 7.16667,-0.5 14.8333,-0.5 22.5,-0.5C 22.5,6.5 22.5,13.5 22.5,20.5C 14.8333,20.5 7.16667,20.5 -0.5,20.5C -0.5,13.5 -0.5,6.5 -0.5,-0.5 Z"/>
<path fill="#000000" d="M 1.5,1.5 C 7.16667,1.5 12.8333,1.5 18.5,1.5C 18.5,7.16667 18.5,12.8333 18.5,18.5C 12.8333,18.5 7.16667,18.5 1.5,18.5C 1.5,12.8333 1.5,7.16667 1.5,1.5 Z"/>
<path fill="#f6f6f6" d="M 2.5,2.5 C 7.5,2.5 12.5,2.5 17.5,2.5C 17.5,7.5 17.5,12.5 17.5,17.5C 12.5,17.5 7.5,17.5 2.5,17.5C 2.5,12.5 2.5,7.5 2.5,2.5 Z"/><path fill="#000000" d="M 9.5,3.5 C 14.6624,7.30901 13.6624,8.47567 6.5,7C 7.7101,5.9609 8.7101,4.79423 9.5,3.5 Z"/>
<path fill="#000000" d="M 6.5,13.5 C 8.62816,12.3709 10.9615,12.2042 13.5,13C 12.3333,14.1667 11.1667,15.3333 10,16.5C 8.9609,15.2899 7.79423,14.2899 6.5,13.5 Z"/></g>

<g transform="matrix(0.82,0,0,0.82,180,74)" id="g2042">
<path fill="#fefffe" d="M -0.5,-0.5 C 1.16667,-0.5 2.83333,-0.5 4.5,-0.5C 4.5,2.16667 4.5,4.83333 4.5,7.5C 7.5,7.5 10.5,7.5 13.5,7.5C 13.5,4.83333 13.5,2.16667 13.5,-0.5C 15.1667,-0.5 16.8333,-0.5 18.5,-0.5C 18.5,6.16667 18.5,12.8333 18.5,19.5C 12.1667,19.5 5.83333,19.5 -0.5,19.5C -0.5,12.8333 -0.5,6.16667 -0.5,-0.5 Z"/>
<path fill="#000000" d="M 4.5,-0.5 C 7.5,-0.5 10.5,-0.5 13.5,-0.5C 13.5,2.16667 13.5,4.83333 13.5,7.5C 10.5,7.5 7.5,7.5 4.5,7.5C 4.5,4.83333 4.5,2.16667 4.5,-0.5 Z"/>
<path fill="#fefffe" d="M 5.5,0.5 C 7.83333,0.5 10.1667,0.5 12.5,0.5C 12.5,2.5 12.5,4.5 12.5,6.5C 10.1667,6.5 7.83333,6.5 5.5,6.5C 5.5,4.5 5.5,2.5 5.5,0.5 Z"/>
<path fill="#000000" d="M 8.5,1.5 C 12.412,4.23635 11.7453,5.06968 6.5,4C 7.38053,3.2917 8.0472,2.45837 8.5,1.5 Z"/>
<path fill="#000000" d="M 4.5,8.5 C 7.5,8.5 10.5,8.5 13.5,8.5C 13.5,11.1667 13.5,13.8333 13.5,16.5C 10.5,16.5 7.5,16.5 4.5,16.5C 4.5,13.8333 4.5,11.1667 4.5,8.5 Z"/>
<path fill="#fefffe" d="M 5.5,9.5 C 7.83333,9.5 10.1667,9.5 12.5,9.5C 12.5,11.5 12.5,13.5 12.5,15.5C 10.1667,15.5 7.83333,15.5 5.5,15.5C 5.5,13.5 5.5,11.5 5.5,9.5 Z"/>
<path fill="#000000" d="M 6.5,12.5 C 7.94639,11.3871 9.61305,11.2204 11.5,12C 10.6667,12.8333 9.83333,13.6667 9,14.5C 8.2917,13.6195 7.45837,12.9528 6.5,12.5 Z"/>
</g>

<g transform="matrix(0.8,0,0,0.8,198,74)" id="g2043">
<path fill="#fefffe" d="M -0.5,-0.5 C 8.16667,-0.5 16.8333,-0.5 25.5,-0.5C 25.5,5.5 25.5,11.5 25.5,17.5C 16.8333,17.5 8.16667,17.5 -0.5,17.5C -0.5,11.5 -0.5,5.5 -0.5,-0.5 Z"/>
<path fill="#000000" d="M 1.5,0.5 C 8.16667,0.5 14.8333,0.5 21.5,0.5C 21.5,5.5 21.5,10.5 21.5,15.5C 14.8333,15.5 8.16667,15.5 1.5,15.5C 1.5,10.5 1.5,5.5 1.5,0.5 Z"/>
<path fill="#e6e6e6" d="M 2.5,1.5 C 8.5,1.5 14.5,1.5 20.5,1.5C 20.5,5.83333 20.5,10.1667 20.5,14.5C 14.5,14.5 8.5,14.5 2.5,14.5C 2.5,10.1667 2.5,5.83333 2.5,1.5 Z"/>
<path fill="#757575" d="M 10.5,3.5 C 11.404,4.20895 11.7373,5.20895 11.5,6.5C 15.35,6.70072 16.35,8.53406 14.5,12C 13.2068,12.49 11.8734,12.6567 10.5,12.5C 10.5,9.5 10.5,6.5 10.5,3.5 Z"/>
<path fill="#757575" d="M 3.5,7.5 C 7.83316,5.82427 9.49982,7.49093 8.5,12.5C 6.83333,12.5 5.16667,12.5 3.5,12.5C 3.5,11.1667 3.5,9.83333 3.5,8.5C 7.5,8.16667 7.5,7.83333 3.5,7.5 Z"/></g>

<g  transform="matrix(0.81,0,0,0.81,217,74)" id="g2044">
<path fill="#fcfcfc" d="M -0.5,-0.5 C 5.5,-0.5 11.5,-0.5 17.5,-0.5C 17.5,4.83333 17.5,10.1667 17.5,15.5C 11.5,15.5 5.5,15.5 -0.5,15.5C -0.5,10.1667 -0.5,4.83333 -0.5,-0.5 Z"/>
<path fill="#fafafa" d="M 12.5,2.5 C 16.0199,10.7953 13.3532,14.1286 4.5,12.5C 2.38133,9.69403 2.048,6.69403 3.5,3.5C 5.15611,2.85353 6.82277,2.18687 8.5,1.5C 9.84918,1.84572 11.1825,2.17905 12.5,2.5 Z"/>
<path fill="#160101" d="M 12.5,2.5 C 11.1825,2.17905 9.84918,1.84572 8.5,1.5C 6.82277,2.18687 5.15611,2.85353 3.5,3.5C 4.39152,1.28577 6.05819,0.285769 8.5,0.5C 10.3545,0.340239 11.6879,1.00691 12.5,2.5 Z"/>
<path fill="#000000" d="M 6.5,4.5 C 11.1585,4.01463 12.4919,5.84796 10.5,10C 5.72816,10.8104 4.39483,8.97711 6.5,4.5 Z"/>
<path fill="#000000" d="M 3.5,3.5 C 2.048,6.69403 2.38133,9.69403 4.5,12.5C 2.26495,11.7142 1.26495,10.0476 1.5,7.5C 1.34024,5.64545 2.00691,4.31212 3.5,3.5 Z"/>
<path fill="#000000" d="M 12.5,2.5 C 14.7351,3.28577 15.7351,4.95243 15.5,7.5C 15.5,12.1667 13.1667,14.5 8.5,14.5C 6.64545,14.6598 5.31212,13.9931 4.5,12.5C 13.3532,14.1286 16.0199,10.7953 12.5,2.5 Z"/>
</g>

<g transform="matrix(0.75,0,0,0.75,233,74)" id="g2045"><path fill="#fefffe" d="M -0.5,-0.5 C 0.5,-0.5 1.5,-0.5 2.5,-0.5C 2.5,5.5 2.5,11.5 2.5,17.5C 8.5,17.5 14.5,17.5 20.5,17.5C 20.5,11.5 20.5,5.5 20.5,-0.5C 21.5,-0.5 22.5,-0.5 23.5,-0.5C 23.5,6.5 23.5,13.5 23.5,20.5C 15.5,20.5 7.5,20.5 -0.5,20.5C -0.5,13.5 -0.5,6.5 -0.5,-0.5 Z"/>
<path fill="#000000" d="M 2.5,-0.5 C 8.5,-0.5 14.5,-0.5 20.5,-0.5C 20.5,5.5 20.5,11.5 20.5,17.5C 14.5,17.5 8.5,17.5 2.5,17.5C 2.5,11.5 2.5,5.5 2.5,-0.5 Z"/>
<path fill="#fefffe" d="M 3.5,0.5 C 6.89838,0.179644 10.2317,0.512978 13.5,1.5C 11.8333,1.83333 10.1667,2.16667 8.5,2.5C 6.3603,2.44392 4.69363,1.77725 3.5,0.5 Z"/>
<path fill="#f1f1f1" d="M 15.5,1.5 C 16.2506,0.426544 17.2506,0.259877 18.5,1C 17.6477,2.72835 16.6477,2.89502 15.5,1.5 Z"/>
<path fill="#f1f1f1" d="M 3.5,3.5 C 6.83333,3.5 10.1667,3.5 13.5,3.5C 13.5,7.83333 13.5,12.1667 13.5,16.5C 10.1667,16.5 6.83333,16.5 3.5,16.5C 3.5,12.1667 3.5,7.83333 3.5,3.5 Z"/>
<path fill="#fdfdfd" d="M 14.5,3.5 C 16.1667,3.5 17.8333,3.5 19.5,3.5C 19.5,7.83333 19.5,12.1667 19.5,16.5C 17.8333,16.5 16.1667,16.5 14.5,16.5C 14.5,12.1667 14.5,7.83333 14.5,3.5 Z"/>
<path fill="#000000" d="M 16.5,4.5 C 19.1368,6.15382 18.8034,6.65382 15.5,6C 16.056,5.61742 16.3893,5.11742 16.5,4.5 Z"/>
<path fill="#000000" d="M 15.5,14.5 C 16.2506,13.4265 17.2506,13.2599 18.5,14C 17.6477,15.7284 16.6477,15.895 15.5,14.5 Z"/></g>

<g transform="matrix(0.75,0,0,0.75,-1,90)" id="g2046">
<path fill="#fbfbfb" d="M -0.5,-0.5 C 6.83333,-0.5 14.1667,-0.5 21.5,-0.5C 21.5,5.5 21.5,11.5 21.5,17.5C 14.1667,17.5 6.83333,17.5 -0.5,17.5C -0.5,11.5 -0.5,5.5 -0.5,-0.5 Z"/>
<path fill="#000000" d="M 8.5,3.5 C 9.5,3.5 10.5,3.5 11.5,3.5C 11.3645,6.55138 11.6978,9.55138 12.5,12.5C 12.1667,13.1667 11.8333,13.8333 11.5,14.5C 10.6143,13.675 10.281,12.675 10.5,11.5C 7.3972,11.6572 4.73053,12.4906 2.5,14C 4.72773,10.6116 6.72773,7.11159 8.5,3.5 Z"/>
<path fill="#bdbdbd" d="M 8.5,6.5 C 10.1042,7.28696 10.7709,8.6203 10.5,10.5C 9.12656,10.6567 7.79323,10.49 6.5,10C 7.30501,8.88732 7.97168,7.72065 8.5,6.5 Z"/>
<path fill="#000000" d="M 16.5,7.5 C 17.9778,7.23798 19.3112,7.57131 20.5,8.5C 19.6518,10.4086 19.3184,12.4086 19.5,14.5C 14.8775,15.5918 13.0442,13.9252 14,9.5C 14.9947,8.93406 15.828,8.26739 16.5,7.5 Z"/>
<path fill="#fcfcfc" d="M 15.5,9.5 C 17.9701,10.3603 18.1368,11.6936 16,13.5C 15.51,12.2068 15.3433,10.8734 15.5,9.5 Z"/>
</g>

<g transform="matrix(0.72,0,0,0.72,18,91)" id="g2047">
<path fill="#fefffe" d="M -0.5,-0.5 C 0.166667,-0.5 0.833333,-0.5 1.5,-0.5C 1.5,5.16667 1.5,10.8333 1.5,16.5C 7.16667,16.5 12.8333,16.5 18.5,16.5C 18.5,10.8333 18.5,5.16667 18.5,-0.5C 19.5,-0.5 20.5,-0.5 21.5,-0.5C 21.5,5.83333 21.5,12.1667 21.5,18.5C 14.1667,18.5 6.83333,18.5 -0.5,18.5C -0.5,12.1667 -0.5,5.83333 -0.5,-0.5 Z"/>
<path fill="#000000" d="M 1.5,-0.5 C 7.16667,-0.5 12.8333,-0.5 18.5,-0.5C 18.5,5.16667 18.5,10.8333 18.5,16.5C 12.8333,16.5 7.16667,16.5 1.5,16.5C 1.5,10.8333 1.5,5.16667 1.5,-0.5 Z"/>
<path fill="#f9fbfc" d="M 2.5,0.5 C 7.5,0.5 12.5,0.5 17.5,0.5C 17.5,5.5 17.5,10.5 17.5,15.5C 12.5,15.5 7.5,15.5 2.5,15.5C 2.5,10.5 2.5,5.5 2.5,0.5 Z"/>
<path fill="#5886b6" d="M 13.5,3.5 C 14.7562,3.46141 15.7562,3.96141 16.5,5C 13.6667,7.83333 10.8333,10.6667 8,13.5C 1.95365,8.59857 2.45365,7.09857 9.5,9C 11.4641,7.54905 12.7974,5.71572 13.5,3.5 Z"/>
</g>

</svg>
