<?xml version="1.0" encoding="utf-8"?>
<!-- Generator: Adobe Illustrator 25.0.0, SVG Export Plug-In . SVG Version: 6.00 Build 0)  -->
<svg version="1.1" id="图层_1" xmlns="http://www.w3.org/2000/svg" xmlns:xlink="http://www.w3.org/1999/xlink" x="0px" y="0px"
	 viewBox="0 0 22 22" style="enable-background:new 0 0 22 22;" xml:space="preserve">
<style type="text/css">
	.st0{fill:url(#SVGID_1_);}
	.st1{fill:url(#SVGID_2_);}
	.st2{fill:url(#SVGID_3_);}
	.st3{fill:url(#SVGID_4_);}
	.st4{opacity:0.6;}
	.st5{opacity:0.38;fill:url(#SVGID_5_);enable-background:new    ;}
	.st6{opacity:0.38;fill:url(#SVGID_6_);enable-background:new    ;}
	.st7{opacity:0.38;fill:url(#SVGID_7_);enable-background:new    ;}
	.st8{opacity:0.38;fill:url(#SVGID_8_);enable-background:new    ;}
</style>
<g>
	
		<radialGradient id="SVGID_1_" cx="519.1851" cy="-127.3083" r="8.2454" gradientTransform="matrix(0 1 -0.9943 0 -113.4659 -506.377)" gradientUnits="userSpaceOnUse">
		<stop  offset="0.1429" style="stop-color:#D5EFFC"/>
		<stop  offset="0.8424" style="stop-color:#3C8EC6"/>
		<stop  offset="1" style="stop-color:#3399CC"/>
	</radialGradient>
	<path class="st0" d="M21,13.6c0-0.5,0.5-6.4-4.6-9.1C14.1,3.2,10.9,3.2,9.1,5C6,8.2,8.6,11.5,9.6,11.8c0,0,0,0,0-0.1
		c-1.6-6.3,9.3-7.4,11.2,1.8C20.9,13.9,21,13.9,21,13.6z"/>
	
		<radialGradient id="SVGID_2_" cx="446.2906" cy="702.4343" r="5.9862" gradientTransform="matrix(0.9943 0 0 1 -430.3552 -688)" gradientUnits="userSpaceOnUse">
		<stop  offset="0.1429" style="stop-color:#FEE588"/>
		<stop  offset="0.5636" style="stop-color:#F79B30"/>
		<stop  offset="0.6867" style="stop-color:#F58B2D"/>
		<stop  offset="0.8883" style="stop-color:#F3752A"/>
		<stop  offset="1" style="stop-color:#F36C29"/>
	</radialGradient>
	<path class="st1" d="M8.5,21.2c0.5,0,6.4,0.5,9.1-4.6c1.3-2.4,1.2-5.6-0.5-7.4c-3.1-3.1-6.4-0.5-6.8,0.5c0,0,0,0,0.1,0
		c6.2-1.6,7.3,9.3-1.8,11.3C8.3,21,8.3,21.1,8.5,21.2z"/>
	
		<radialGradient id="SVGID_3_" cx="-378.6884" cy="623.4329" r="8.246" gradientTransform="matrix(0 -1 0.9943 0 -610.95 -369.3066)" gradientUnits="userSpaceOnUse">
		<stop  offset="0" style="stop-color:#FCB116"/>
		<stop  offset="0.193" style="stop-color:#FBB318"/>
		<stop  offset="0.3352" style="stop-color:#F9B91C"/>
		<stop  offset="0.461" style="stop-color:#F6C323"/>
		<stop  offset="0.5767" style="stop-color:#F4D12D"/>
		<stop  offset="0.6727" style="stop-color:#F0E03A"/>
		<stop  offset="0.7439" style="stop-color:#E5D534"/>
		<stop  offset="0.8645" style="stop-color:#CFBD24"/>
		<stop  offset="1" style="stop-color:#B19E11"/>
	</radialGradient>
	<path class="st2" d="M1,8.6c0,0.5-0.5,6.4,4.6,9.1C8,19,11.2,18.9,13,17.2c3.1-3.2,0.5-6.5-0.5-6.8c0,0,0,0,0,0.1
		c1.6,6.3-9.3,7.4-11.2-1.8C1.2,8.3,1.1,8.3,1,8.6z"/>
	
		<radialGradient id="SVGID_4_" cx="445.619" cy="696.9989" r="8.2461" gradientTransform="matrix(0.9943 0 0 1 -430.3552 -688)" gradientUnits="userSpaceOnUse">
		<stop  offset="0" style="stop-color:#A1C43A"/>
		<stop  offset="0.4545" style="stop-color:#A0CC3A"/>
		<stop  offset="1" style="stop-color:#3C943A"/>
	</radialGradient>
	<path class="st3" d="M13.5,1C13,1,7.1,0.6,4.5,5.7C3.2,8.1,3.2,11.3,5,13c3.1,3.1,6.4,0.5,6.8-0.5c0,0,0,0-0.1,0
		c-6.2,1.6-7.3-9.3,1.8-11.3C13.8,1.2,13.8,1.1,13.5,1z"/>
	<g class="st4">
		
			<radialGradient id="SVGID_5_" cx="413.168" cy="345.1736" r="9.5277" gradientTransform="matrix(1.0925 0 0 1.6216 -440.2973 -540.7683)" gradientUnits="userSpaceOnUse">
			<stop  offset="0" style="stop-color:#F9E788"/>
			<stop  offset="1" style="stop-color:#FFFFFF"/>
		</radialGradient>
		<path class="st5" d="M11,5.2c-0.9,0-1.7,0.2-2.4,0.5c-2.3,3,0.1,5.9,1,6.2c0,0,0,0,0-0.1C8.7,8,12.4,6,15.8,7.2
			C14.7,6,12.9,5.2,11,5.2z"/>
		
			<radialGradient id="SVGID_6_" cx="413.1686" cy="345.1745" r="9.5274" gradientTransform="matrix(1.0925 0 0 1.6216 -440.2973 -540.7683)" gradientUnits="userSpaceOnUse">
			<stop  offset="0" style="stop-color:#F9E788"/>
			<stop  offset="1" style="stop-color:#FFFFFF"/>
		</radialGradient>
		<path class="st6" d="M10.3,9.7C10.3,9.7,10.3,9.7,10.3,9.7c3.8-0.9,5.7,2.7,4.6,6.1c1.5-1.1,2.4-2.8,2.4-4.7
			c0-0.7-0.1-1.4-0.4-2.1C13.8,6.1,10.6,8.7,10.3,9.7z"/>
		
			<radialGradient id="SVGID_7_" cx="413.1689" cy="345.1732" r="9.526" gradientTransform="matrix(1.0925 0 0 1.6216 -440.2973 -540.7683)" gradientUnits="userSpaceOnUse">
			<stop  offset="0" style="stop-color:#F9E788"/>
			<stop  offset="1" style="stop-color:#FFFFFF"/>
		</radialGradient>
		<path class="st7" d="M12.5,10.4C12.4,10.3,12.4,10.4,12.5,10.4c0.9,3.9-2.7,5.8-6.2,4.6C7.4,16.2,9.1,17,11,17
			c0.9,0,1.7-0.2,2.4-0.5C15.7,13.6,13.4,10.7,12.5,10.4z"/>
		
			<radialGradient id="SVGID_8_" cx="413.168" cy="345.1736" r="9.5275" gradientTransform="matrix(1.0925 0 0 1.6216 -440.2973 -540.7683)" gradientUnits="userSpaceOnUse">
			<stop  offset="0" style="stop-color:#F9E788"/>
			<stop  offset="1" style="stop-color:#FFFFFF"/>
		</radialGradient>
		<path class="st8" d="M11.8,12.5C11.8,12.5,11.8,12.5,11.8,12.5C8,13.5,6.1,9.9,7.2,6.4c-1.5,1.1-2.4,2.8-2.4,4.7
			c0,0.7,0.1,1.4,0.4,2.1C8.3,16.1,11.4,13.5,11.8,12.5z"/>
	</g>
</g>
</svg>
