<svg width="262" height="72" xmlns="http://www.w3.org/2000/svg" preserveAspectRatio="none">
  <g>
    <title>background</title>
    <rect x="-1" y="-1" width="264" height="74" id="canvas_background" fill="none"/>
  </g>
  <g>
    <title>Layer 1</title>
    <g id="svg_1">
      <path fill="#000000" fill-rule="evenodd" d="m5.43436,9.43436l2.56564,2.56564l-7,0l0,-7l2.95816,2.95816c1.44816,-1.2218 3.31923,-1.95816 5.36229,-1.95816c3.45829,0 6.42379,2.10985 7.67955,5l-2,1c-0.93659,-2.39026 -3.12944,-3.91989 -5.67955,-4c-1.46926,0.05287 -2.81993,0.57862 -3.88609,1.43436z" id="svg_2"/>
    </g>
    <g id="svg_3">
      <path fill="#000000" fill-rule="evenodd" d="m30.56564,9.43436l-2.56564,2.56564l7,0l0,-7l-2.95816,2.95816c-1.44816,-1.2218 -3.31923,-1.95816 -5.36229,-1.95816c-3.45829,0 -6.42379,2.10985 -7.67955,5l2,1c0.93659,-2.39026 3.12944,-3.91989 5.67955,-4c1.46926,0.05287 2.81993,0.57862 3.88609,1.43436z" id="svg_4"/>
    </g>
    <g id="svg_5">
      <path fill="#000000" fill-rule="evenodd" d="m50,16l-10,0l0,-3l-3,0l0,-4.99408c0,-1.10784 0.89451,-2.00592 1.99406,-2.00592l12.01188,0c1.10129,0 1.99406,0.88655 1.99406,2.00592l0,4.99408l-3,0l0,3zm-8,-5l6,0l0,3l-6,0l0,-3zm-2,-9l10,0l0,3l-10,0l0,-3zm9,6l2,0l0,2l-2,0l0,-2z" id="svg_6"/>
    </g>
    <g id="svg_7">
      <path fill="#000000" fill-rule="evenodd" d="m66,2l-8,0c-0.55,0 -1,0.45 -1,1l0,3c0,0.55 0.45,1 1,1l8,0c0.55,0 1,-0.45 1,-1l0,-1l1,0l0,3l-7,0l0,8l2,0l0,-6l7,0l0,-6l-3,0l0,-1c0,-0.55 -0.45,-1 -1,-1z" id="svg_8"/>
    </g>
    <g id="svg_9">
      <path fill="#000000" fill-rule="evenodd" d="m74.27,4.55l5.16,5.15l-2.43,5.3l2.5,0l1.64,-3.58l4.59,4.58l1.27,-1.27l-11.45,-11.46l-1.28,1.28l0,0zm3.55,-1.55l2,2l1.76,0l-0.55,1.21l1.71,1.71l1.34,-2.92l3.92,0l0,-2l-10.18,0l0,0z" id="svg_10"/>
    </g>
    <g id="svg_11">
      <path fill="#000000" fill-rule="evenodd" d="m103,6.5c0,-1.93 -1.57,-3.5 -3.5,-3.5l-5.5,0l0,12l6.25,0c1.79,0 3.25,-1.46 3.25,-3.25c0,-1.3 -0.77,-2.41 -1.87,-2.93c0.83,-0.58 1.37,-1.44 1.37,-2.32zm-4,-1.5c0.83,0 1.5,0.67 1.5,1.5c0,0.83 -0.67,1.5 -1.5,1.5l-2,0l0,-3l2,0zm-2,8l0,-3l2.5,0c0.83,0 1.5,0.67 1.5,1.5c0,0.83 -0.67,1.5 -1.5,1.5l-2.5,0z" id="svg_12"/>
    </g>
    <g id="svg_13">
      <polygon fill="#000000" fill-rule="evenodd" points="115,3 115,5 117.58000183105469,5 113.91999816894531,13 111,13 111,15 119,15 119,13 116.41999816894531,13 120.08000183105469,5 123,5 123,3 " id="svg_14"/>
    </g>
    <g id="svg_15">
      <path fill="#000000" d="m135,15c2.76,0 5,-2.24 5,-5l0,-7l-2,0l0,7c0,1.7503 -1.50087,3 -3,3c-1.49913,0 -3,-1.24163 -3,-3l0,-7l-2,0l0,7c0,2.76 2.24,5 5,5zm-6,1l0,2l12,0l0,-2l-12,0z" id="svg_16"/>
    </g>
    <g id="svg_17">
      <path fill="#010101" fill-rule="evenodd"
            d="m148.8875,6.06c0,-0.4575 0.0975,-0.87375 0.29625,-1.2525c0.19875,-0.37875 0.47625,-0.70125 0.83625,-0.9675c0.36,-0.26625 0.78375,-0.4725 1.27875,-0.61875c0.495,-0.14625 1.035,-0.22125 1.6275,-0.22125c0.6075,0 1.15875,0.0825 1.65375,0.25125c0.495,0.16875 0.91875,0.40125 1.27125,0.705c0.3525,0.3 0.6225,0.65625 0.81375,1.0725c0.19125,0.4125 0.285,0.86625 0.285,1.3575l-2.2575,0c0,-0.22875 -0.0375,-0.4425 -0.10875,-0.6375c-0.07125,-0.19875 -0.18375,-0.3675 -0.33375,-0.50625c-0.15,-0.13875 -0.3375,-0.25125 -0.5625,-0.32625c-0.225,-0.07875 -0.49125,-0.11625 -0.79875,-0.11625c-0.29625,0 -0.55125,0.03375 -0.7725,0.0975c-0.2175,0.06375 -0.3975,0.15375 -0.54,0.27c-0.1425,0.11625 -0.25125,0.25125 -0.3225,0.405c-0.07125,0.15375 -0.10875,0.3225 -0.10875,0.495c0,0.36 0.18375,0.66375 0.55125,0.9075c0.02155,0.01408 0.04317,0.02812 0.06493,0.04233c0.26225,0.1713 0.73882,0.48267 1.23882,0.98267l-3,0c0,0 -0.78625,-0.62375 -0.82375,-0.69125c-0.19125,-0.35625 -0.28875,-0.7725 -0.28875,-1.24875zm11.1125,2.94l-14,0l0,2l7.21875,0c0.135,0.0525 0.3,0.105 0.4125,0.15375c0.2775,0.12375 0.495,0.255 0.6525,0.3825c0.1575,0.13125 0.2625,0.27375 0.31875,0.42375c0.05625,0.15375 0.0825,0.32625 0.0825,0.51375c0,0.17625 -0.03375,0.34125 -0.10125,0.49125c-0.0675,0.15375 -0.1725,0.285 -0.31125,0.39375c-0.13875,0.10875 -0.31875,0.195 -0.5325,0.25875c-0.2175,0.06375 -0.46875,0.09375 -0.76125,0.09375c-0.32625,0 -0.6225,-0.03375 -0.88875,-0.0975c-0.26625,-0.06375 -0.49125,-0.16875 -0.67875,-0.31125c-0.1875,-0.1425 -0.33375,-0.33 -0.43875,-0.55875c-0.105,-0.22875 -0.19125,-0.57375 -0.19125,-0.74375l-2.23125,0c0,0.2525 0.06,0.6875 0.17625,1.025c0.11625,0.3375 0.28125,0.64125 0.4875,0.9075c0.20625,0.26625 0.45375,0.495 0.735,0.69c0.28125,0.195 0.585,0.36 0.915,0.4875c0.33,0.13125 0.67125,0.22875 1.035,0.28875c0.36,0.06375 0.72375,0.09375 1.08375,0.09375c0.6,0 1.1475,-0.0675 1.635,-0.20625c0.4875,-0.13875 0.9075,-0.3375 1.2525,-0.5925c0.345,-0.25875 0.61125,-0.57375 0.8025,-0.9525c0.19125,-0.37875 0.28125,-0.80625 0.28125,-1.28625c0,-0.45 -0.07875,-0.855 -0.2325,-1.21125c-0.0375,-0.08625 -0.07875,-0.16875 -0.1275,-0.25125l3.40625,0.0075l0,-2z"
            id="svg_18"/>
    </g>
    <g id="svg_19">
      <path fill="#000000" fill-rule="evenodd" d="m172,1l-2,0l-4.5,12l2,0l1.12,-3l4.75,0l1.12,3l2,0l-4.49,-12l0,0zm-2.62,7l1.62,-4.33l1.62,4.33l-3.24,0l0,0z" id="svg_20"/>
    </g>
    <g id="svg_21">
      <g fill="none" fill-rule="evenodd" id="svg_22">
        <path fill="#000000" d="m194.5,8.87c0,0 -1.5,1.62 -1.5,2.62c0,0.83 0.67,1.5 1.5,1.5c0.83,0 1.5,-0.67 1.5,-1.5c0,-0.99 -1.5,-2.62 -1.5,-2.62l0,0zm-1.79,-2.08l-6.8,-6.79l-1.06,1.06l1.59,1.59l-4.15,4.14c-0.39,0.39 -0.39,1.02 0,1.41l4.5,4.5c0.2,0.2 0.45,0.3 0.71,0.3c0.26,0 0.51,-0.1 0.71,-0.29l4.5,-4.5c0.39,-0.39 0.39,-1.03 0,-1.42l0,0zm-8.5,0.21l3.29,-3.29l3.29,3.29l-6.58,0l0,0z" id="svg_23"/>
      </g>
    </g>
    <g id="svg_24">
      <path fill="#000000" fill-rule="evenodd" d="m201,6l-2,0l0,-4l7,0l0,2l-5,0l0,2zm7,-2l0,-2l7,0l0,4l-2,0l0,-2l-5,0zm0,10l5,0l0,-2l2,0l0,4l-7,0l0,-2zm-9,-2l2,0l0,2l5,0l0,2l-7,0l0,-4zm0,-4l4,0l0,-2l3,3l-3,3l0,-2l-4,0l0,-2zm9,1l3,-3l0,2l4,0l0,2l-4,0l0,2l-3,-3z" id="svg_25"/>
    </g>
    <g id="svg_26">
      <path fill="#000000" fill-rule="evenodd" d="m218,16l10,0l0,-2l-10,0l0,2zm10,-10l-10,0l0,2l10,0l0,-2zm-10,-4l0,2l14,0l0,-2l-14,0zm0,10l14,0l0,-2l-14,0l0,2z" id="svg_27"/>
    </g>
    <g id="svg_28">
      <path fill="#000000" fill-rule="evenodd" d="m238,14l0,2l10,0l0,-2l-10,0zm0,-8l0,2l10,0l0,-2l-10,0zm-2,6l14,0l0,-2l-14,0l0,2zm0,-10l0,2l14,0l0,-2l-14,0z" id="svg_29"/>
    </g>
    <g id="svg_30">
      <path fill="#000000" fill-rule="evenodd" d="m6,34l10,0l0,-2l-10,0l0,2zm-4,-4l14,0l0,-2l-14,0l0,2zm0,-10l0,2l14,0l0,-2l-14,0zm4,6l10,0l0,-2l-10,0l0,2z" id="svg_31"/>
    </g>
    <g id="svg_32">
      <path fill="#000000" fill-rule="evenodd" d="m21,20l0,2l12,0l0,-2l-12,0l0,0zm2.5,7l2.5,0l0,7l2,0l0,-7l2.5,0l-3.5,-3.5l-3.5,3.5l0,0z" id="svg_33"/>
    </g>
    <g id="svg_34">
      <path fill="#000000" fill-rule="evenodd" d="m48.5,21l-2.5,0l0,-3l-2,0l0,3l-2.5,0l3.5,3.5l3.5,-3.5l0,0zm-9.5,5l0,2l12,0l0,-2l-12,0l0,0zm2.5,7l2.5,0l0,3l2,0l0,-3l2.5,0l-3.5,-3.5l-3.5,3.5l0,0z" id="svg_35"/>
    </g>
    <g id="svg_36">
      <path fill="#000000" fill-rule="evenodd" d="m66.5,27l-2.5,0l0,-7l-2,0l0,7l-2.5,0l3.5,3.5l3.5,-3.5l0,0zm-9.5,5l0,2l12,0l0,-2l-12,0l0,0z" id="svg_37"/>
    </g>
    <g id="svg_38">
      <path fill="#000000" fill-rule="evenodd" d="m88,21l-14,0l0,2l14,0l0,-2zm-14,12l4,0l0,-2l-4,0l0,2zm11.5,-7l-11.5,0l0,2l11.75,0c0.83,0 1.5,0.67 1.5,1.5c0,0.83 -0.67,1.5 -1.5,1.5l-2.75,0l0,-2l-3,3l3,3l0,-2l2.5,0c1.93,0 3.5,-1.57 3.5,-3.5c0,-1.93 -1.57,-3.5 -3.5,-3.5z" id="svg_39"/>
    </g>
    <g id="svg_40">
      <path fill="#000000" fill-rule="evenodd" d="m92,21l0,1l6,6l0,5l2,-1l0,-4l6,-6l0,-1l-14,0zm4,3l6,0l-3,3l-3,-3z" id="svg_41"/>
    </g>
    <g id="svg_42">
      <polygon fill="#000000" fill-rule="evenodd" points="122,20 112,20 112,21.799999237060547 117.5,27 112,32.20000076293945 112,34 122,34 122,32 115.0999984741211,32 120,27 115.0999984741211,22 122,22 " id="svg_43"/>
    </g>
    <g id="svg_44">
      <polygon fill="#000000" fill-rule="evenodd" points="131,25 135,29 139,25 " id="svg_45"/>
    </g>
    <g id="svg_46">
      <polygon fill="#000000" fill-rule="evenodd" points="142,20 146,24 150,20 " transform="rotate(-90 152.00000000000003,20.99999999999999) " id="svg_47"/>
    </g>
    <g id="svg_48">
      <path fill="#000000" fill-rule="evenodd" d="m163.9,27c0,-1.16 0.94,-2.1 2.1,-2.1l4,0l0,-1.9l-4,0c-2.21,0 -4,1.79 -4,4c0,2.21 1.79,4 4,4l4,0l0,-1.9l-4,0c-1.16,0 -2.1,-0.94 -2.1,-2.1l0,0zm12.1,-4l-4,0l0,1.9l4,0c1.16,0 2.1,0.94 2.1,2.1c0,1.16 -0.94,2.1 -2.1,2.1l-4,0l0,1.9l4,0c2.21,0 4,-1.79 4,-4c0,-2.21 -1.79,-4 -4,-4l0,0zm-8,5l6,0l0,-2l-6,0l0,2l0,0z" id="svg_49"/>
    </g>
    <g id="svg_50">
      <path fill="#000000" fill-rule="evenodd" d="m196,19c0.55,0 1,0.45 1,1l0,14c0,0.55 -0.45,1 -1,1l-14,0c-0.55,0 -1,-0.45 -1,-1l0,-14c0,-0.55 0.45,-1 1,-1l14,0zm-13,2l0,12l12,0l0,-12l-12,0zm4,10l-2,0l0,-5l2,0l0,5l0,0zm3,0l-2,0l0,-8l2,0l0,8l0,0zm3,0l-2,0l0,-4l2,0l0,4l0,0z" id="svg_51"/>
    </g>
    <g id="svg_52">
      <g fill="none" fill-rule="evenodd" id="svg_53">
        <path stroke="#000000" d="m199.5,21.5l15,0l0,12l-15,0l0,-12z" id="svg_54"/>
        <path fill="#000000" d="m204,26l1,0l0,7l-1,0l0,-7z" id="svg_55"/>
        <path fill="#D8D8D8" d="m200,22l14,0l0,3l-14,0l0,-3z" id="svg_56"/>
        <path fill="#000000" d="m200,25l14,0l0,1l-14,0l0,-1zm0,4l14,0l0,1l-14,0l0,-1z" id="svg_57"/>
      </g>
    </g>
    <g id="svg_58">
      <path fill="#000000" fill-rule="evenodd" d="m220,25.5c-0.83,0 -1.5,0.67 -1.5,1.5c0,0.83 0.67,1.5 1.5,1.5c0.83,0 1.5,-0.67 1.5,-1.5c0,-0.83 -0.67,-1.5 -1.5,-1.5l0,0zm10,0c-0.83,0 -1.5,0.67 -1.5,1.5c0,0.83 0.67,1.5 1.5,1.5c0.83,0 1.5,-0.67 1.5,-1.5c0,-0.83 -0.67,-1.5 -1.5,-1.5l0,0zm-5,0c-0.83,0 -1.5,0.67 -1.5,1.5c0,0.83 0.67,1.5 1.5,1.5c0.83,0 1.5,-0.67 1.5,-1.5c0,-0.83 -0.67,-1.5 -1.5,-1.5l0,0z" id="svg_59"/>
    </g>
    <g id="svg_60">
      <path fill="#000000" fill-rule="evenodd" d="m244,26l0,-4l-2,0l0,4l-4,0l0,2l4,0l0,4l2,0l0,-4l4,0l0,-2l-4,0z" id="svg_61"/>
    </g>
    <g id="svg_62">
      <path fill="#000000" fill-rule="evenodd" d="m2,38l0,14l14,0l0,-14l-14,0l0,0zm6,12l-4,0l0,-4l4,0l0,4l0,0zm0,-6l-4,0l0,-4l4,0l0,4l0,0zm6,6l-4,0l0,-4l4,0l0,4l0,0zm0,-6l-4,0l0,-4l4,0l0,4l0,0z" id="svg_63"/>
    </g>
    <g id="svg_64">
      <g fill="#000000" fill-rule="evenodd" id="svg_65">
        <path d="m20,52l2,0l0,-2l-2,0l0,2l0,0zm2,-11l-2,0l0,2l2,0l0,-2l0,0zm1,11l2,0l0,-2l-2,0l0,2l0,0zm8,-14l-2,0l0,2l2,0l0,-2l0,0zm-9,0l-2,0l0,2l2,0l0,-2l0,0zm3,0l-2,0l0,2l2,0l0,-2l0,0zm-5,11l2,0l0,-2l-2,0l0,2l0,0zm9,3l2,0l0,-2l-2,0l0,2l0,0zm3,-14l0,2l2,0l0,-2l-2,0l0,0zm0,5l2,0l0,-2l-2,0l0,2l0,0zm0,9l2,0l0,-2l-2,0l0,2l0,0zm0,-3l2,0l0,-2l-2,0l0,2l0,0z" opacity="0.54" id="svg_66"/>
        <polygon points="28,38 26,38 26,44 20,44 20,46 26,46 26,52 28,52 28,46 34,46 34,44 28,44 " id="svg_67"/>
      </g>
    </g>
    <g id="svg_68">
      <g fill="#000000" fill-rule="evenodd" id="svg_69">
        <path d="m44,52l2,0l0,-2l-2,0l0,2l0,0zm-3,-12l2,0l0,-2l-2,0l0,2l0,0zm3,9l2,0l0,-2l-2,0l0,2l0,0zm-3,3l2,0l0,-2l-2,0l0,2l0,0zm-3,-9l2,0l0,-2l-2,0l0,2l0,0zm0,9l2,0l0,-2l-2,0l0,2l0,0zm0,-12l2,0l0,-2l-2,0l0,2l0,0zm0,9l2,0l0,-2l-2,0l0,2l0,0zm12,0l2,0l0,-2l-2,0l0,2l0,0zm0,3l2,0l0,-2l-2,0l0,2l0,0zm0,-9l2,0l0,-2l-2,0l0,2l0,0zm0,-5l0,2l2,0l0,-2l-2,0l0,0zm-6,2l2,0l0,-2l-2,0l0,2l0,0zm3,0l2,0l0,-2l-2,0l0,2l0,0zm-3,3l2,0l0,-2l-2,0l0,2l0,0zm3,9l2,0l0,-2l-2,0l0,2l0,0z" opacity="0.54" id="svg_70"/>
        <polygon points="38,46 52,46 52,44 38,44 " id="svg_71"/>
      </g>
    </g>
    <g id="svg_72">
      <g fill="#000000" fill-rule="evenodd" id="svg_73">
        <path d="m59,52l2,0l0,-2l-2,0l0,2l0,0zm-3,-9l2,0l0,-2l-2,0l0,2l0,0zm0,-3l2,0l0,-2l-2,0l0,2l0,0zm3,6l2,0l0,-2l-2,0l0,2l0,0zm0,-6l2,0l0,-2l-2,0l0,2l0,0zm-3,12l2,0l0,-2l-2,0l0,2l0,0zm0,-6l2,0l0,-2l-2,0l0,2l0,0zm0,3l2,0l0,-2l-2,0l0,2l0,0zm12,-11l0,2l2,0l0,-2l-2,0l0,0zm0,8l2,0l0,-2l-2,0l0,2l0,0zm0,6l2,0l0,-2l-2,0l0,2l0,0zm0,-9l2,0l0,-2l-2,0l0,2l0,0zm0,6l2,0l0,-2l-2,0l0,2l0,0zm-3,3l2,0l0,-2l-2,0l0,2l0,0zm0,-6l2,0l0,-2l-2,0l0,2l0,0zm0,-6l2,0l0,-2l-2,0l0,2l0,0z" opacity="0.54" id="svg_74"/>
        <polygon points="62,52 64,52 64,38 62,38 " id="svg_75"/>
      </g>
    </g>
    <g id="svg_76">
      <g fill="#000000" fill-rule="evenodd" id="svg_77">
        <path d="m82,41l-2,0l0,2l2,0l0,-2l0,0zm3,3l-2,0l0,2l2,0l0,-2l0,0zm-3,0l-2,0l0,2l2,0l0,-2l0,0zm0,3l-2,0l0,2l2,0l0,-2l0,0zm-3,-3l-2,0l0,2l2,0l0,-2l0,0z" opacity="0.54" id="svg_78"/>
        <path d="m74,38l14,0l0,14l-14,0l0,-14zm12,12l0,-10l-10,0l0,10l10,0z" id="svg_79"/>
      </g>
    </g>
    <g id="svg_80">
      <g fill="#000000" fill-rule="evenodd" id="svg_81">
        <path d="m98,46l2,0l0,-2l-2,0l0,2l0,0zm0,-3l2,0l0,-2l-2,0l0,2l0,0zm0,6l2,0l0,-2l-2,0l0,2l0,0zm0,3l2,0l0,-2l-2,0l0,2l0,0zm-3,0l2,0l0,-2l-2,0l0,2l0,0zm0,-12l2,0l0,-2l-2,0l0,2l0,0zm0,6l2,0l0,-2l-2,0l0,2l0,0zm9,6l2,0l0,-2l-2,0l0,2l0,0zm0,-6l2,0l0,-2l-2,0l0,2l0,0zm0,3l2,0l0,-2l-2,0l0,2l0,0zm0,-6l2,0l0,-2l-2,0l0,2l0,0zm-6,-3l2,0l0,-2l-2,0l0,2l0,0zm6,-2l0,2l2,0l0,-2l-2,0l0,0zm-3,14l2,0l0,-2l-2,0l0,2l0,0zm0,-6l2,0l0,-2l-2,0l0,2l0,0zm0,-6l2,0l0,-2l-2,0l0,2l0,0z" opacity="0.54" id="svg_82"/>
        <polygon points="92,52 94,52 94,38 92,38 " id="svg_83"/>
      </g>
    </g>
    <g id="svg_84">
      <g fill="#000000" fill-rule="evenodd" id="svg_85">
        <path d="m113,46l2,0l0,-2l-2,0l0,2l0,0zm-3,6l2,0l0,-2l-2,0l0,2l0,0zm6,0l2,0l0,-2l-2,0l0,2l0,0zm0,-3l2,0l0,-2l-2,0l0,2l0,0zm-3,3l2,0l0,-2l-2,0l0,2l0,0zm-3,-3l2,0l0,-2l-2,0l0,2l0,0zm6,-3l2,0l0,-2l-2,0l0,2l0,0zm-6,-3l2,0l0,-2l-2,0l0,2l0,0zm0,3l2,0l0,-2l-2,0l0,2l0,0zm12,0l2,0l0,-2l-2,0l0,2l0,0zm0,3l2,0l0,-2l-2,0l0,2l0,0zm0,-6l2,0l0,-2l-2,0l0,2l0,0zm-6,0l2,0l0,-2l-2,0l0,2l0,0zm3,9l2,0l0,-2l-2,0l0,2l0,0zm0,-6l2,0l0,-2l-2,0l0,2l0,0zm3,6l2,0l0,-2l-2,0l0,2l0,0z" opacity="0.54" id="svg_86"/>
        <polygon points="110,38 110,40 124,40 124,38 " id="svg_87"/>
      </g>
    </g>
    <g id="svg_88">
      <g fill="#000000" fill-rule="evenodd" id="svg_89">
        <path d="m128,40l2,0l0,-2l-2,0l0,2l0,0zm3,0l2,0l0,-2l-2,0l0,2l0,0zm0,6l2,0l0,-2l-2,0l0,2l0,0zm0,6l2,0l0,-2l-2,0l0,2l0,0zm-3,-9l2,0l0,-2l-2,0l0,2l0,0zm0,3l2,0l0,-2l-2,0l0,2l0,0zm0,6l2,0l0,-2l-2,0l0,2l0,0zm0,-3l2,0l0,-2l-2,0l0,2l0,0zm9,-3l2,0l0,-2l-2,0l0,2l0,0zm-3,6l2,0l0,-2l-2,0l0,2l0,0zm3,0l2,0l0,-2l-2,0l0,2l0,0zm-3,-12l2,0l0,-2l-2,0l0,2l0,0zm3,0l2,0l0,-2l-2,0l0,2l0,0zm-3,9l2,0l0,-2l-2,0l0,2l0,0zm0,-6l2,0l0,-2l-2,0l0,2l0,0zm0,3l2,0l0,-2l-2,0l0,2l0,0z" opacity="0.54" id="svg_90"/>
        <polygon points="140,38 140,52 142,52 142,38 " id="svg_91"/>
      </g>
    </g>
    <g id="svg_92">
      <g fill="#000000" fill-rule="evenodd" id="svg_93">
        <path d="m150.830509,38l-2,0l0,2l2,0l0,-2l0,0zm3,6l-2,0l0,2l2,0l0,-2l0,0zm0,3l-2,0l0,2l2,0l0,-2l0,0zm3,-3l-2,0l0,2l2,0l0,-2l0,0zm-6,0l-2,0l0,2l2,0l0,-2l0,0zm6,-6l-2,0l0,2l2,0l0,-2l0,0zm-3,3l-2,0l0,2l2,0l0,-2l0,0zm0,-3l-2,0l0,2l2,0l0,-2l0,0zm-6,9l-2,0l0,2l2,0l0,-2l0,0zm10,2l2,0l0,-2l-2,0l0,2l0,0zm0,-6l2,0l0,-2l-2,0l0,2l0,0zm0,3l2,0l0,-2l-2,0l0,2l0,0zm0,-8l0,2l2,0l0,-2l-2,0l0,0zm-10,0l-2,0l0,2l2,0l0,-2l0,0zm0,3l-2,0l0,2l2,0l0,-2l0,0zm0,3l-2,0l0,2l2,0l0,-2l0,0z" opacity="0.54" id="svg_94"/>
        <polygon points="145.8305088877678,52 159.8305088877678,52 159.8305088877678,50 145.8305088877678,50 " id="svg_95"/>
      </g>
    </g>
    <g id="svg_96">
      <path fill="#000000" fill-rule="evenodd" d="m170,52l2,0l0,-2l-2,0l0,2l0,0zm-3,-6l2,0l0,-2l-2,0l0,2l0,0zm0,-6l2,0l0,-2l-2,0l0,2l0,0zm3,9l2,0l0,-2l-2,0l0,2l0,0zm-3,3l2,0l0,-2l-2,0l0,2l0,0zm-3,-9l2,0l0,-2l-2,0l0,2l0,0zm0,9l2,0l0,-2l-2,0l0,2l0,0zm0,-12l2,0l0,-2l-2,0l0,2l0,0zm0,6l2,0l0,-2l-2,0l0,2l0,0zm6,0l2,0l0,-2l-2,0l0,2l0,0zm-6,3l2,0l0,-2l-2,0l0,2l0,0zm12,0l2,0l0,-2l-2,0l0,2l0,0zm0,3l2,0l0,-2l-2,0l0,2l0,0zm0,-6l2,0l0,-2l-2,0l0,2l0,0zm0,-3l2,0l0,-2l-2,0l0,2l0,0zm0,-5l0,2l2,0l0,-2l-2,0l0,0zm-6,2l2,0l0,-2l-2,0l0,2l0,0zm3,0l2,0l0,-2l-2,0l0,2l0,0zm-3,3l2,0l0,-2l-2,0l0,2l0,0zm3,9l2,0l0,-2l-2,0l0,2l0,0zm0,-6l2,0l0,-2l-2,0l0,2l0,0z" opacity="0.54" id="svg_97"/>
    </g>
    <g id="svg_98">
      <path fill="#000000" fill-rule="evenodd" d="m190.5,39.62l-6.5,6.5l0,2.88l2.88,0l6.5,-6.5l-2.88,-2.88zm5.35,0.4c0.2,-0.2 0.2,-0.51 0,-0.71l-2.17,-2.17c-0.2,-0.2 -0.51,-0.2 -0.71,0l-1.35,1.36l2.88,2.88l1.35,-1.36l0,0z" id="svg_99"/>
    </g>
    <g id="svg_100">
      <path fill="#000000" fill-rule="evenodd" d="m200,40l14,0l0,2l-14,0l0,-2zm0,4l6,0l0,2l-6,0l0,-2zm0,4l2,0l0,2l-2,0l0,-2zm8,-4l6,0l0,2l-6,0l0,-2zm-4,4l2,0l0,2l-2,0l0,-2zm4,0l2,0l0,2l-2,0l0,-2zm4,0l2,0l0,2l-2,0l0,-2z" id="svg_101"/>
    </g>
    <g id="svg_102">
      <polygon fill="#000000" fill-rule="evenodd" points="214,38 218,42 222,38 " transform="rotate(90 219,46.00000000000002) " id="svg_103"/>
    </g>
    <g id="svg_104">
      <polygon fill="#000000" fill-rule="evenodd" points="246.52999877929688,42.529998779296875 245.47000122070312,41.470001220703125 243,43.939998626708984 240.52999877929688,41.470001220703125 239.47000122070312,42.529998779296875 241.94000244140625,45 239.47000122070312,47.470001220703125 240.52999877929688,48.529998779296875 243,46.060001373291016 245.47000122070312,48.529998779296875 246.52999877929688,47.470001220703125 244.05999755859375,45 " id="svg_105"/>
    </g>
    <g id="svg_106">
      <polygon fill="#000000" fill-rule="evenodd" points="12.4399995803833,60.439998626708984 9,63.880001068115234 5.559999942779541,60.439998626708984 4.5,61.5 9,66 13.5,61.5 " id="svg_107"/>
    </g>
    <g id="svg_108">
      <polygon fill="#000000" fill-rule="evenodd" points="27,60 22.5,64.5 23.559999465942383,65.56000137329102 27,62.119998931884766 30.440000534057617,65.56000137329102 31.5,64.5 " id="svg_109"/>
    </g>
    <g id="svg_110">
      <polygon fill="#000000" fill-rule="evenodd" points="44.4399995803833,54.439999997615814 41,57.88000011444092 37.55999994277954,54.439999997615814 36.5,55.5 41,60 45.5,55.5 " transform="rotate(90 40.00000000000001,62) " id="svg_111"/>
    </g>
    <g id="svg_112">
      <polygon fill="#000000" fill-rule="evenodd" points="59,54 54.5,58.5 55.55999994277954,59.55999994277954 59,56.11999988555908 62.4399995803833,59.55999994277954 63.5,58.5 " transform="rotate(90 58.00000000000001,62) " id="svg_113"/>
    </g>
    <g id="svg_114">
      <polygon fill="#000000" fill-rule="evenodd" points="75,62 83.875,62 79.94000244140625,58.060001373291016 81,57 87,63 81,69 79.94000244140625,67.94000244140625 83.875,64 75,64 " id="svg_115"/>
    </g>
    <g id="svg_116">
      <polygon fill="#000000" fill-rule="evenodd" points="105,62 96.125,62 100.05999755859375,58.060001373291016 99,57 93,63 99,69 100.05999755859375,67.94000244140625 96.125,64 105,64 " id="svg_117"/>
    </g>
    <line fill="none" stroke="#000" stroke-width="1.5" x1="112" y1="60" x2="112.156867" y2="69.420671" id="svg_119"/>
    <line fill="none" stroke="#000" stroke-width="1.5" x1="112.156867" y1="68.634801" x2="122.745103" y2="68.634801" id="svg_120"/>
    <line fill="none" stroke="#000" stroke-width="1.5" x1="123" y1="57.65441" x2="123.137259" y2="69.419115" id="svg_121"/>
    <line fill="none" stroke-width="1.5" stroke-opacity="null" fill-opacity="null" x1="115.686279" y1="57.066174" x2="123.725495" y2="57.066174" id="svg_122" stroke="#000"/>
    <line fill="none" stroke="#000" stroke-width="1.5" stroke-opacity="null" fill-opacity="null" x1="111.76471" y1="60.791664" x2="116.470592" y2="56.674017" id="svg_123"/>
    <line fill="none" stroke="#000" stroke-width="1.5" stroke-opacity="null" fill-opacity="null" x1="112.549024" y1="61.3799" x2="116.470592" y2="61.3799" id="svg_124"/>
    <line fill="none" stroke-width="1.5" stroke-opacity="null" fill-opacity="null" x1="116.470592" y1="57" x2="116.470592" y2="62.164213" id="svg_125" stroke="#000"/>
    <line fill="none" stroke="#000" stroke-width="1.5" stroke-opacity="null" fill-opacity="null" x1="133.333338" y1="57.066174" x2="129.215691" y2="62.360292" id="svg_126"/>
    <line fill="none" stroke="#000" stroke-width="1.5" stroke-opacity="null" fill-opacity="null" x1="132.941181" y1="57.262253" x2="132.745103" y2="69.223037" id="svg_128"/>
    <line fill="none" stroke="#000" stroke-width="1.5" stroke-opacity="null" fill-opacity="null" x1="137.058829" y1="57.262253" x2="137.058829" y2="69.026958" id="svg_129"/>
    <line fill="none" stroke="#000" stroke-width="1.5" stroke-opacity="null" fill-opacity="null" x1="136.86275" y1="68.83088" x2="140.196084" y2="63.536762" id="svg_130"/>
    <ellipse ry="3.05084" rx="3.135585" id="svg_118" cy="60.480874" cx="150.592847" stroke-width="1.5" stroke="#000" fill="#fff"/>
    <line id="svg_127" y2="68.107975" x2="157.457237" y1="63.023241" x1="153.050468" fill-opacity="null" stroke-opacity="null" stroke-width="1.5" stroke="#000" fill="none"/>
  </g>
</svg>
