<?xml version="1.0" encoding="UTF-8" standalone="yes"?>
<svg xmlns="http://www.w3.org/2000/svg" xmlns:xlink="http://www.w3.org/1999/xlink" width="612pt" height="792pt">
 <g id="SFixTitle" />
 <g id="SContent">
  <g transform="scale(1.33333)">
   <g>
    <g>
     <g />
    </g>
    <g>
     <g />
    </g>
    <g>
     <g />
    </g>
   </g>
   <g transform="matrix(1,0,0,1,54,72)">
    <defs>
     <clipPath id="CLIP0">
      <path d="M-0.5,-0.5 L152.5,-0.5 L152.5,13.5 L-0.5,13.5 Z " />
     </clipPath>
    </defs>
    <g clip-path="url(#CLIP0)">
     <g />
    </g>
    <defs>
     <clipPath id="CLIP1">
      <path d="M-0.5,-1.45363903 L152.5,-1.45363903 L152.5,14.54636097 L-0.5,14.54636097 Z " />
     </clipPath>
    </defs>
    <g clip-path="url(#CLIP1)">
     <g>
      <g />
     </g>
    </g>
    <defs>
     <clipPath id="CLIP2">
      <path d="M-0.5,-0.5 L152.5,-0.5 L152.5,13.5 L-0.5,13.5 Z " />
     </clipPath>
    </defs>
    <g clip-path="url(#CLIP2)">
     <g>
      <defs>
       <clipPath id="CLIP3">
        <path d="M0.25,0.25 L151.265655518,0.25 L151.265655518,12.105932236 L0.25,12.105932236 Z " />
       </clipPath>
      </defs>
      <g clip-path="url(#CLIP3)">
       <g>
        <g transform="matrix(1,0,0,1,1.05219209,11.38683987)">
         <text x="1" y="-2.11066413" font-family="Arial" font-size="9.96000004" fill="#000000">DEMO</text>
         <text x="30.88000107" y="-2.11066413" font-family="Arial" font-size="9.96000004" fill="#000000"> </text>
         <text x="33.64720917" y="-2.11066413" font-family="Arial" font-size="9.96000004" fill="#000000">TEXT</text>
         <text x="59.10162354" y="-2.11066413" font-family="Arial" font-size="9.96000004" fill="#000000"> </text>
         <text x="61.86883163" y="-2.11066413" font-family="Arial" font-size="9.96000004" fill="#000000">ON</text>
         <text x="76.80883026" y="-2.11066413" font-family="Arial" font-size="9.96000004" fill="#000000"> </text>
         <text x="79.57603455" y="-2.11066413" font-family="Arial" font-size="9.96000004" fill="#000000">SHEET2</text>
        </g>
       </g>
      </g>
     </g>
    </g>
    <defs>
     <clipPath id="CLIP4">
      <path d="M-0.5,-0.5 L152.5,-0.5 L152.5,13.5 L-0.5,13.5 Z " />
     </clipPath>
    </defs>
    <g clip-path="url(#CLIP4)">
     <g />
    </g>
   </g>
   <g />
   <g />
   <g>
    <text x="10" y="10" font-family="Arial" font-size="10" fill="#FF0000">Evaluation Only. Created with Aspose.Cells for .NET.Copyright 2003 - 2018 Aspose Pty Ltd.</text>
   </g>
  </g>
 </g>
 <defs />
</svg>
